<?xml version="1.0" encoding="utf-8"?>
<!-- Generator: Adobe Illustrator 16.0.4, SVG Export Plug-In . SVG Version: 6.00 Build 0)  -->
<!DOCTYPE svg PUBLIC "-//W3C//DTD SVG 1.1//EN" "http://www.w3.org/Graphics/SVG/1.1/DTD/svg11.dtd">
<svg version="1.1" id="Layer_2" xmlns="http://www.w3.org/2000/svg" xmlns:xlink="http://www.w3.org/1999/xlink" x="0px" y="0px"
	 width="689px" height="529px" viewBox="114.5 20.5 689 529" enable-background="new 114.5 20.5 689 529" xml:space="preserve">
<g id="Start">
	<path d="M386.667,366l5.667-34.333c0,0-8.667-13.333-26-13S332.667,334,331.667,368s21,53.333,26,58S373,440.334,371,460.667
		s-6.678,15.235-9.017,15.333c-7.983,0.333-24.65-24.333-24.65-24.333l-2,2l-5.333,34c0,0,14.333,21.666,34.667,22.333
		s35-30.333,31-67.333s-40.667-50.666-39-75S372.667,344.667,386.667,366z"/>
	<path d="M500.01,427.33c-0.33-36-12.34-55.66-29.68-56.33C453,370.33,442,386,442,386v-13h-18v-40.67L401,345v27h-11v31h11
		c0,0,0,48.67,0,77.67c0,27.38,12,39.08,23.33,38.66c9.339-0.346,16.34-6.66,16.34-6.66l-1-13.34c6.66,17.67,15,21.67,23,21.67
		s15-7.67,15-7.67l0.66,5.34L502,517C498.67,510.67,500.33,463.33,500.01,427.33z M474,472c0,0-0.67,16.33-8.67,16.67
		c-8,0.33-6.66-37.34,8.67-37.67V472z M437,483c0,0-12,10.33-12-7.33c0-17.67,0-70.67,0-70.67h16v-11l5.5,24.33
		c0,0,13.5-17.33,19.5-17c6,0.34,8.33,13,8.33,19C474.33,420.33,434.67,421.33,437,483z"/>
	<path d="M505,516V373h21v2c0,0,7.5-9.666,21.166-4.999l6.834-1.273V343l23-14.332V367l16-2.332V394l-15,3.334V473
		c0,0,10.001-8.332,13.334-10.332L593,495.334c0,0-9.666,11.333-17.666,11s-21-7-21.667-33.333s0.083-73.667,0.083-73.667
		l-4.75,0.334V405c0,0-7.667-4.665-13,0.668c-11.666,11.666-8,106.666-8,106.666L505,516z"/>
	<path fill="#4FA900" d="M391.75,332c0,0-9.25-13-27.75-12.5s-30.75,25-31,49.75s14.25,44.5,21.75,52.25s19,15,17.25,39.25
		s-15.5,24-35.5-7l-6,33.25c0,0,13.25,20.25,34.5,21s30.5-32,30-52.25S389.75,418,369,397s-15.179-50.217-2.25-48
		c8.75,1.5,19.5,15.75,19.5,15.75L391.75,332z"/>
	<path fill="#4FA900" d="M500.25,515.75c-2.75-6-1.25-42-1.75-87s-15-56.25-30-56.25S441,388,441,388v-14h-18v-40.5l-20.88,11.62
		l-0.87,27.63L391,373v29l10.75-0.5l0.37,79c2.13,28.25,11.63,37,21.63,37.5s15.75-5.25,15.75-5.25l0.25-15.75
		c5.25,15.5,14.5,22.75,23.25,22.75s15-7.75,15-7.75v5L500.25,515.75z M437.25,483.75c0,0-3.75,4.25-8.25,4s-5-8.75-5-8.75v-75h17
		v-14l5.75,28.5c0,0,11.75-18,20-17c11.83,1.43,7.75,20.5,7.75,20.5C433.5,428.5,437.25,483.75,437.25,483.75z M475.18,474.5
		c-1.18,6.25-4.18,16-10.18,16.25s-9.02-21.81-1.75-33.5C469,448,475.18,450,475.18,450S476.36,468.25,475.18,474.5z"/>
	<path fill="#4FA900" d="M506,514.75l21.5-3.5c0,0-0.875-72-0.125-79.75S533.5,393,548,404.25V399h7c0,0,0,70.25,0.25,76.25
		s2.666,31.118,21.5,28.5c8.859-1.231,15-9,15-9l-0.75-30.5c0,0-12,11.25-14.5,10.5S576,395,576,395l16-1.75l0.102-26.25
		l-16.352,1.5L575.5,330L555,343l-0.25,28l-8.5,0.5c0,0-9.5-5.5-19.75,6l-0.562-4.25l-19.938,1V514.75z"/>
	<path fill="#2AFFDE" d="M382,353l3.333-19.333c0,0-11-11.666-24-9s-24.667,22.332-25,44.666s16,44.333,26,55s22.299,30.404,12,51
		c-11.669,23.334-35-4.333-35-4.333l-3.005,15.333c0,0,11.338,18,28.338,17.667s24.266-27.979,24.333-50.667
		c0.081-27-10.21-34.563-28.333-55.666c-24.333-28.334-6.257-52.668,2.038-53.334S378,348,382,353z"/>
	<path fill="#2AFFDE" d="M407,349.166L419,343v37l15,1v19l-16-1c0,0-0.667,65.333-0.333,76.333s5,23.333,14.667,19L434,511
		c0,0-24.333,15.667-27-27.333l-1.667-86L397,397v-17l9.667-0.333L407,349.166z"/>
	<path fill="#2AFFDE" d="M493.31,424.48c0-15.33-1.35-39.521-18.688-45.19c-17.33-5.67-27.7,11.29-27.7,11.29l2.91,14.92
		c0,0,12.17-12.17,19.32-8.5c15.89,8.15,10.85,31.39,10.85,31.39s-18.67,0-28.67,15.61c-20.521,32.03-2.66,71.67,10.34,72.67
		S482,497,482,497l1,14h10.33C492,508,493.31,439.81,493.31,424.48z M480,474c-1.67,10-3.67,25.33-16,23.67
		c-12.33-1.67-11.56-30.26-3.33-43c5.33-8.27,19.33-9,19.33-9S481.67,464,480,474z"/>
	<path fill="#2AFFDE" d="M511,380v131l12.667-1.667c0,0,0.167-69.333-0.167-78.333s5.5-35.333,19.5-33.333V375c0,0-14-2-21,29v-24
		H511z"/>
	<path fill="#2AFFDE" d="M552,378.311l9-1.644V347l11-7v36l15-1.026V390l-15,3c0,0-1.667,55.333-0.667,70s3,21.666,15.667,15.333
		V493c0,0-5.334,8.999-14.667,6.333S560.334,484,560.667,472s-0.532-77.333-0.532-77.333l-8.135,1V378.311z"/>
</g>
<g id="to">
	<path d="M773.25,237c-0.029-39.826-30-57.75-41-57.75C723,179.25,717,189,717,189v-20.75L702,162v-27.5c-26-5.25-24-1.5-24-1.5v17
		l-6-2.5l-2,1.5v26.75l8.09,2.75c0,0-0.09,31.25-0.13,55.25c-0.03,24,13.04,31.5,22.29,32.25s16-4.5,16-4.5L716,253
		C731.75,284.25,773.277,274.5,773.25,237z M710.75,239.5c-8,4.25-8.25-3-8.5-5.75s0-44.75,0-44.75l11.75,5.5
		C704,220.75,710.75,239.5,710.75,239.5z M744,248.75c-1.5,0-11.5-6.5-11.5-24.5c0-10.75,1-17.5,3.5-18.75
		c3.11-1.56,13.75,9.5,13.75,25.25S745.5,248.75,744,248.75z"/>
	<path fill="#4FA900" d="M762.78,204.6c-7.71-13.63-19.65-25.61-31.53-23.48c-29.55,5.3-18,58.88-18,58.88s-4,3.5-9,1
		s-2.75-55-2.75-55l14.25,6.25L716,169l-14.25-6.75l-0.5-27.25L680,133v18l-8-3v26l9,3.25c0,0,0.38,53,0.88,61s6.12,34.5,33.12,22.5
		V246c0,0,7,22.75,28.5,23.75s28.75-21.5,29.5-32.75C773.36,231.56,769.99,217.35,762.78,204.6z M742.25,250
		c-5-2-16.5-26.75-6.5-46.5c1.86-3.68,14,3.5,16.25,23.25C753.74,242,747.25,252,742.25,250z"/>
	<path fill="#2AFFDE" d="M679,156.25l9,3.75v-23l9,1.333V164l15,6.333V184l-15-7c0,0-0.23,42.565,0.5,53.667
		c0.833,12.667,4.5,16.697,13.5,16.515V258c0,0-19.333,7.667-23-20v-65l-9-3V156.25z"/>
	<path fill="#2AFFDE" d="M768.67,230.33c0.235-15.663-15-44.24-33.34-44.62c-8.021-0.16-17,11.62-17,35.96
		c0,24.33,13.772,45.318,30.67,43.33C766,263,768.469,243.734,768.67,230.33z M745.33,255.5c-5.66-0.83-18.66-17.5-17-34.17
		c1.67-16.66,4.59-23.36,9-23.34c6.87,0.02,18.67,4.74,22.67,27.37C764,248,751,256.33,745.33,255.5z"/>
</g>
<g id="Dice">
	<path d="M415,63v188c0,0,11.33,3,25.67,3c14.33,0,58.66-1,59.33-104.33C500.67,46.33,445.33,49,415,63z M440,222V89
		c0,0,36.33-15,36.67,63.67C477,231.33,440,222,440,222z"/>
	<polygon points="502,110.5 527,112.25 527,253 502,252 	"/>
	<path d="M514.5,102.25c6.252,0.184,12.493-6.248,12.5-21.75c0.007-15.25-7.5-20.5-12.5-20.75s-13.543,8-13.5,22.5
		C501.035,94.273,506,102,514.5,102.25z"/>
	<path d="M618.75,128c-37.08-7-35,77.75-31.75,88.25c0,0-12.75,9.5-18,10s-16.5-7.5-16.5-40.25s7-38.25,13-38.5s18.75,16,18.75,16
		L586,162l5-33.25c0,0-11.25-13.5-27.75-13s-34.75,18.25-34.75,71s25.5,87,61.25,60.5l-2-25.25c0,0,10.5,59.5,60.25,28.5l-3-26.25
		l-2.25-0.75c0,0-29.5,27.75-33.5-21l40,8l1.75-2.75C651,207.75,658.13,135.43,618.75,128z M608.75,174.25c0,0,2.5-19.76,8-18
		c10.65,3.41,10.75,21.5,10.75,21.5L608.75,174.25z"/>
	<path fill="#4FA900" d="M415,64l1,185c0,0,11.75,3.5,24.25,3.5s58.25-0.75,59.5-102.25S444,48,415,64z M438,223V86
		c0,0,39.67-14.78,39.75,65.75C477.84,238.75,438,223,438,223z"/>
	<polygon fill="#4FA900" points="503,111 503,250 525,251.25 525,113 	"/>
	<path fill="#4FA900" d="M514,99.75c6.244,0.271,14-6.5,13-20.5s-8.5-18.75-13-18.75s-11.25,7-11,21.25S508.25,99.5,514,99.75z"/>
	<path fill="#4FA900" d="M585,160l5-30.75c0,0-11.25-12.75-27-12.75s-32.75,19.75-33,68.25s17.485,70.691,36.5,70.75
		c12.5,0.039,23.5-9.75,23.5-9.75l-3.25-27.25c0,0-11.5,8.5-18.75,8s-17.5-13.75-16.25-41.75s4.5-39.75,15-40S585,160,585,160z"/>
	<path fill="#4FA900" d="M615.98,128.02c-11.75-1.25-28.15,14.4-28.762,62.01c-0.608,47.61,18.972,67.28,34.472,67.78
		s26.188-7.69,26.188-7.69L644,225h-1c0,0-5.25,8.88-20,6.38s-14.75-31.13-14.75-31.13l40,7.75l1.74-0.99
		C655,142.5,627.73,129.27,615.98,128.02z M608.5,174c0,0,1.8-21.91,10.4-19.58c8.6,2.33,10.35,22.58,10.35,23.33
		S608.5,174,608.5,174z"/>
	<path fill="#2AFFDE" d="M420,66v179c0,0,73.67,24.33,75-89.5S434.33,60.67,420,66z M433,227V83c0,0,49.67-26.67,49.67,68
		S433,227,433,227z"/>
	<polygon fill="#2AFFDE" points="509,116 509,246 521,244.667 521,117 	"/>
	<path fill="#2AFFDE" d="M515,93c4.672,0.26,7.333-3,7-13.333s-2.667-15-7-14.667s-7.333,7.006-7.333,14.003S509,92.667,515,93z"/>
	<path fill="#2AFFDE" d="M582.667,146.667l2.666-16.333c0,0-9.666-11-23.666-9s-26.334,22.667-26.334,63s12.621,65.795,31.334,66
		c13.666,0.15,18.666-6.667,18.666-6.667l-2-16.667c0,0-34.667,22.908-36-41.213S579.001,140,582.667,146.667z"/>
	<path fill="#2AFFDE" d="M618.67,133c-18-4.62-26.34,36-26,56.67c0.33,20.66,4.66,81.36,51,57.51L640,234.67c0,0-35.33,16-36-40.34
		l41.67,7.06C645.67,201.39,652.97,141.8,618.67,133z M604,178.33c0,0,1-31.33,16.17-30.33c15.16,1,16.16,36.33,16.16,36.33
		L604,178.33z"/>
</g>
<g id="Click">
	<path d="M237,110l-23,12.67l0.17,15.83c0,0-20.25-4.08-42.25,23.58c-22,27.67-23.8,61.3-23.8,65.63s2.78,38.64,39.11,41.64
		c12.66,0.53,26.77-7.68,26.77-7.68V265l26-2.67V110H237z M213,232.67l-2.19-1.02c0,0-10.18,13.98-25.52,13.31
		c-15.33-0.67-16.71-40.38-1.71-62.38s29.59-17.08,29.59-17.08L214,236L213,232.67z"/>
	<path d="M394.33,254l-29-78.83L391,114v-1.33l-27.83,3.66L351,149V62h-2.33L326,68v64c-50.5-22-59,57-59,57v-46h-2.33L242,152.82
		V263l24.67-2.99L266.33,211c4.67,36,20,48.33,35.67,48s24-11,24-11v7h22l2.33-1.83l-0.33-49.5L367,254H394.33z M326,240l-2.33-23
		c0,0-3.67,1-9.34,6.33c-5.66,5.34-13.33,12-20-3.66c-6.66-15.67-2.55-50.54,7.67-60c9-8.34,20.67,6,20.67,6L326,143V240z"/>
	<path d="M254.667,106.667c-4.167,0-13.615,6.965-13.667,21c-0.048,12.833,10.667,16,13.667,16c5,0,11.888-7.01,13-18.5
		C268.667,114.833,260.704,106.667,254.667,106.667z"/>
	<path fill="#4FA900" d="M214.67,123.33l0.33,16.42c0,0-48.101-4.75-64.476,78.39c-3.586,18.207,5.621,39.394,22.146,45.86
		c17.794,6.963,37.71-3.59,41.33-6.67V263l21-3.55V111L214.67,123.33z M215,251l-4.67-17.33c0,0-11.66,14-26.33,12.33
		s-15.67-15.67-15-35.33c0.67-19.67,18.67-50,41.33-48.5l4.67-20.5V251z"/>
	<polygon fill="#4FA900" points="243,151.776 265,143.333 265,259 243,261 	"/>
	<path fill="#4FA900" d="M252.333,142.667c4.667,0.007,13.667-7,13.667-19.333S258.667,107,254,107s-12.125,9.833-12.125,20.5
		S248.333,142.661,252.333,142.667z"/>
	<path fill="#4FA900" d="M325.25,133.25c0,0-6.5-5.75-19.5-4.75s-39,22.584-38.5,73.667s30.5,68.583,56.75,45.083L322,219
		c0,0-12.5,12.25-19,12.25c-6.753,0-14.5-12.5-14.25-39.5s15.75-49,31.5-30.75L325.25,133.25z"/>
	<polygon fill="#4FA900" points="327,69 327,254 348,254 348,202 349.75,201.25 367.75,252 392,252 363.5,174.25 390.75,113.5 
		364,117 348.75,152.75 348.5,62.25 	"/>
	<path fill="#2AFFDE" d="M204.333,156.333l3-13.667c0,0-50.495,20.098-55.333,82.667c-2.333,30.167,30.667,50.333,55.333,30.167
		l-3-12.167c0,0-39.13,26.467-43-20.667C158.999,194.229,184.333,157,204.333,156.333z"/>
	<polygon fill="#2AFFDE" points="218,257 228,255.5 228,118 218,124 	"/>
	<polygon fill="#2AFFDE" points="248,255.667 257,254 257,151 248,154.422 	"/>
	<path fill="#2AFFDE" d="M316,151l2.667-16.333c0,0-4.333-4.334-17-1.667s-30,26.333-30.667,65s16,68,47.667,47.333L316,229.667
		c0,0-33.667,19.667-34-32.333S309.333,147,316,151z"/>
	<polygon fill="#2AFFDE" points="331,71 331,249 342,247.333 342,202 348.333,189.333 370.667,247 385,247 358,173.333 381,118 
		366,121 343,181.125 342.333,67.667 	"/>
	<path fill="#2AFFDE" d="M249.333,135c1.875,0.005,6.265-0.294,8.029-4.395c2.94-6.835,2.138-18.897-3.695-18.605
		C247.101,112.329,242.592,134.983,249.333,135z"/>
</g>
</svg>
