<?xml version="1.0" encoding="utf-8"?>
<!-- Generator: Adobe Illustrator 16.0.4, SVG Export Plug-In . SVG Version: 6.00 Build 0)  -->
<!DOCTYPE svg PUBLIC "-//W3C//DTD SVG 1.1//EN" "http://www.w3.org/Graphics/SVG/1.1/DTD/svg11.dtd">
<svg version="1.1" xmlns="http://www.w3.org/2000/svg" xmlns:xlink="http://www.w3.org/1999/xlink" x="0px" y="0px" width="330px"
	 height="210px" viewBox="0 0 330 210" enable-background="new 0 0 330 210" xml:space="preserve">
<g id="one">
	<radialGradient id="bg_2_" cx="70.2148" cy="60.5903" r="56.3448" gradientUnits="userSpaceOnUse">
		<stop  offset="0" style="stop-color:#FFFFFF"/>
		<stop  offset="0.4573" style="stop-color:#FDFDFD"/>
		<stop  offset="0.6236" style="stop-color:#F6F6F6"/>
		<stop  offset="0.7425" style="stop-color:#EAEAEA"/>
		<stop  offset="0.8387" style="stop-color:#DADADA"/>
		<stop  offset="0.9202" style="stop-color:#C4C4C4"/>
		<stop  offset="0.9921" style="stop-color:#A9A9A9"/>
		<stop  offset="1" style="stop-color:#A6A6A6"/>
	</radialGradient>
	<path id="bg" fill="url(#bg_2_)" stroke="#B5B5B5" stroke-miterlimit="10" d="M107.715,86.09c0,6.627-5.373,12-12,12h-51
		c-6.627,0-12-5.373-12-12v-51c0-6.627,5.373-12,12-12h51c6.627,0,12,5.373,12,12V86.09z"/>
	<path id="face" fill="#FFFFFF" d="M98.215,80.292c0,5.136-4.163,9.299-9.298,9.299H49.513c-5.135,0-9.298-4.163-9.298-9.299V40.889
		c0-5.136,4.163-9.299,9.298-9.299h39.403c5.135,0,9.298,4.163,9.298,9.299V80.292z"/>
	<radialGradient id="eye_1_" cx="70.2148" cy="60.5903" r="10.5713" gradientUnits="userSpaceOnUse">
		<stop  offset="0" style="stop-color:#000000"/>
		<stop  offset="0.2569" style="stop-color:#030303"/>
		<stop  offset="0.4238" style="stop-color:#0B0B0B"/>
		<stop  offset="0.5651" style="stop-color:#1A1A1A"/>
		<stop  offset="0.6921" style="stop-color:#2F2F2F"/>
		<stop  offset="0.8095" style="stop-color:#4B4B4B"/>
		<stop  offset="0.9184" style="stop-color:#6C6C6C"/>
		<stop  offset="1" style="stop-color:#8A8A8A"/>
	</radialGradient>
	<circle id="eye" fill="url(#eye_1_)" cx="70.215" cy="60.59" r="10.571"/>
</g>
<g id="two">
	<radialGradient id="bg_5_" cx="164.2148" cy="60.5903" r="56.3448" gradientUnits="userSpaceOnUse">
		<stop  offset="0" style="stop-color:#FFFFFF"/>
		<stop  offset="0.4573" style="stop-color:#FDFDFD"/>
		<stop  offset="0.6236" style="stop-color:#F6F6F6"/>
		<stop  offset="0.7425" style="stop-color:#EAEAEA"/>
		<stop  offset="0.8387" style="stop-color:#DADADA"/>
		<stop  offset="0.9202" style="stop-color:#C4C4C4"/>
		<stop  offset="0.9921" style="stop-color:#A9A9A9"/>
		<stop  offset="1" style="stop-color:#A6A6A6"/>
	</radialGradient>
	<path id="bg_10_" fill="url(#bg_5_)" stroke="#B5B5B5" stroke-miterlimit="10" d="M201.715,86.09c0,6.627-5.373,12-12,12h-51
		c-6.627,0-12-5.373-12-12v-51c0-6.627,5.373-12,12-12h51c6.627,0,12,5.373,12,12V86.09z"/>
	<path id="face_10_" fill="#FFFFFF" d="M192.215,80.292c0,5.136-4.163,9.299-9.298,9.299h-39.403c-5.135,0-9.298-4.163-9.298-9.299
		V40.889c0-5.136,4.163-9.299,9.298-9.299h39.403c5.135,0,9.298,4.163,9.298,9.299V80.292z"/>
	<radialGradient id="eye_2_" cx="150.2148" cy="74.5903" r="10.5713" gradientUnits="userSpaceOnUse">
		<stop  offset="0" style="stop-color:#000000"/>
		<stop  offset="0.2569" style="stop-color:#030303"/>
		<stop  offset="0.4238" style="stop-color:#0B0B0B"/>
		<stop  offset="0.5651" style="stop-color:#1A1A1A"/>
		<stop  offset="0.6921" style="stop-color:#2F2F2F"/>
		<stop  offset="0.8095" style="stop-color:#4B4B4B"/>
		<stop  offset="0.9184" style="stop-color:#6C6C6C"/>
		<stop  offset="1" style="stop-color:#8A8A8A"/>
	</radialGradient>
	<circle id="eye_40_" fill="url(#eye_2_)" cx="150.215" cy="74.59" r="10.571"/>
	<radialGradient id="eye_6_" cx="175.2148" cy="49.5903" r="10.5713" gradientUnits="userSpaceOnUse">
		<stop  offset="0" style="stop-color:#000000"/>
		<stop  offset="0.2569" style="stop-color:#030303"/>
		<stop  offset="0.4238" style="stop-color:#0B0B0B"/>
		<stop  offset="0.5651" style="stop-color:#1A1A1A"/>
		<stop  offset="0.6921" style="stop-color:#2F2F2F"/>
		<stop  offset="0.8095" style="stop-color:#4B4B4B"/>
		<stop  offset="0.9184" style="stop-color:#6C6C6C"/>
		<stop  offset="1" style="stop-color:#8A8A8A"/>
	</radialGradient>
	<circle id="eye_39_" fill="url(#eye_6_)" cx="175.215" cy="49.59" r="10.571"/>
</g>
<g id="three">
	<radialGradient id="bg_6_" cx="254.2148" cy="60.5903" r="56.3448" gradientUnits="userSpaceOnUse">
		<stop  offset="0" style="stop-color:#FFFFFF"/>
		<stop  offset="0.4573" style="stop-color:#FDFDFD"/>
		<stop  offset="0.6236" style="stop-color:#F6F6F6"/>
		<stop  offset="0.7425" style="stop-color:#EAEAEA"/>
		<stop  offset="0.8387" style="stop-color:#DADADA"/>
		<stop  offset="0.9202" style="stop-color:#C4C4C4"/>
		<stop  offset="0.9921" style="stop-color:#A9A9A9"/>
		<stop  offset="1" style="stop-color:#A6A6A6"/>
	</radialGradient>
	<path id="bg_1_" fill="url(#bg_6_)" stroke="#B5B5B5" stroke-miterlimit="10" d="M291.715,86.09c0,6.627-5.373,12-12,12h-51
		c-6.627,0-12-5.373-12-12v-51c0-6.627,5.373-12,12-12h51c6.627,0,12,5.373,12,12V86.09z"/>
	<path id="face_1_" fill="#FFFFFF" d="M282.215,80.292c0,5.136-4.163,9.299-9.298,9.299h-39.403c-5.135,0-9.298-4.163-9.298-9.299
		V40.889c0-5.136,4.163-9.299,9.298-9.299h39.403c5.135,0,9.298,4.163,9.298,9.299V80.292z"/>
	<radialGradient id="eye_7_" cx="269.0566" cy="45.7485" r="8.7292" gradientUnits="userSpaceOnUse">
		<stop  offset="0" style="stop-color:#000000"/>
		<stop  offset="0.2569" style="stop-color:#030303"/>
		<stop  offset="0.4238" style="stop-color:#0B0B0B"/>
		<stop  offset="0.5651" style="stop-color:#1A1A1A"/>
		<stop  offset="0.6921" style="stop-color:#2F2F2F"/>
		<stop  offset="0.8095" style="stop-color:#4B4B4B"/>
		<stop  offset="0.9184" style="stop-color:#6C6C6C"/>
		<stop  offset="1" style="stop-color:#8A8A8A"/>
	</radialGradient>
	<circle id="eye_3_" fill="url(#eye_7_)" cx="269.057" cy="45.749" r="8.729"/>
	<radialGradient id="eye_8_" cx="253.0566" cy="61.7485" r="8.7292" gradientUnits="userSpaceOnUse">
		<stop  offset="0" style="stop-color:#000000"/>
		<stop  offset="0.2569" style="stop-color:#030303"/>
		<stop  offset="0.4238" style="stop-color:#0B0B0B"/>
		<stop  offset="0.5651" style="stop-color:#1A1A1A"/>
		<stop  offset="0.6921" style="stop-color:#2F2F2F"/>
		<stop  offset="0.8095" style="stop-color:#4B4B4B"/>
		<stop  offset="0.9184" style="stop-color:#6C6C6C"/>
		<stop  offset="1" style="stop-color:#8A8A8A"/>
	</radialGradient>
	<circle id="eye_4_" fill="url(#eye_8_)" cx="253.057" cy="61.749" r="8.729"/>
	<radialGradient id="eye_9_" cx="236.0566" cy="78.7485" r="8.7292" gradientUnits="userSpaceOnUse">
		<stop  offset="0" style="stop-color:#000000"/>
		<stop  offset="0.2569" style="stop-color:#030303"/>
		<stop  offset="0.4238" style="stop-color:#0B0B0B"/>
		<stop  offset="0.5651" style="stop-color:#1A1A1A"/>
		<stop  offset="0.6921" style="stop-color:#2F2F2F"/>
		<stop  offset="0.8095" style="stop-color:#4B4B4B"/>
		<stop  offset="0.9184" style="stop-color:#6C6C6C"/>
		<stop  offset="1" style="stop-color:#8A8A8A"/>
	</radialGradient>
	<circle id="eye_5_" fill="url(#eye_9_)" cx="236.057" cy="78.749" r="8.729"/>
</g>
<g id="four">
	<radialGradient id="bg_8_" cx="70.2148" cy="146.5903" r="56.3448" gradientUnits="userSpaceOnUse">
		<stop  offset="0" style="stop-color:#FFFFFF"/>
		<stop  offset="0.4573" style="stop-color:#FDFDFD"/>
		<stop  offset="0.6236" style="stop-color:#F6F6F6"/>
		<stop  offset="0.7425" style="stop-color:#EAEAEA"/>
		<stop  offset="0.8387" style="stop-color:#DADADA"/>
		<stop  offset="0.9202" style="stop-color:#C4C4C4"/>
		<stop  offset="0.9921" style="stop-color:#A9A9A9"/>
		<stop  offset="1" style="stop-color:#A6A6A6"/>
	</radialGradient>
	<path id="bg_7_" fill="url(#bg_8_)" stroke="#B5B5B5" stroke-miterlimit="10" d="M107.715,172.09c0,6.627-5.373,12-12,12h-51
		c-6.627,0-12-5.373-12-12v-51c0-6.627,5.373-12,12-12h51c6.627,0,12,5.373,12,12V172.09z"/>
	<path id="face_7_" fill="#FFFFFF" d="M98.215,166.292c0,5.136-4.163,9.299-9.298,9.299H49.513c-5.135,0-9.298-4.163-9.298-9.299
		v-39.402c0-5.136,4.163-9.299,9.298-9.299h39.403c5.135,0,9.298,4.163,9.298,9.299V166.292z"/>
	<radialGradient id="eye_21_" cx="85.0566" cy="130.7485" r="8.7292" gradientUnits="userSpaceOnUse">
		<stop  offset="0" style="stop-color:#000000"/>
		<stop  offset="0.2569" style="stop-color:#030303"/>
		<stop  offset="0.4238" style="stop-color:#0B0B0B"/>
		<stop  offset="0.5651" style="stop-color:#1A1A1A"/>
		<stop  offset="0.6921" style="stop-color:#2F2F2F"/>
		<stop  offset="0.8095" style="stop-color:#4B4B4B"/>
		<stop  offset="0.9184" style="stop-color:#6C6C6C"/>
		<stop  offset="1" style="stop-color:#8A8A8A"/>
	</radialGradient>
	<circle id="eye_33_" fill="url(#eye_21_)" cx="85.057" cy="130.749" r="8.729"/>
	<radialGradient id="eye_22_" cx="54.0566" cy="130.7485" r="8.7292" gradientUnits="userSpaceOnUse">
		<stop  offset="0" style="stop-color:#000000"/>
		<stop  offset="0.2569" style="stop-color:#030303"/>
		<stop  offset="0.4238" style="stop-color:#0B0B0B"/>
		<stop  offset="0.5651" style="stop-color:#1A1A1A"/>
		<stop  offset="0.6921" style="stop-color:#2F2F2F"/>
		<stop  offset="0.8095" style="stop-color:#4B4B4B"/>
		<stop  offset="0.9184" style="stop-color:#6C6C6C"/>
		<stop  offset="1" style="stop-color:#8A8A8A"/>
	</radialGradient>
	<circle id="eye_32_" fill="url(#eye_22_)" cx="54.057" cy="130.749" r="8.729"/>
	<radialGradient id="eye_23_" cx="85.0566" cy="165.7485" r="8.7292" gradientUnits="userSpaceOnUse">
		<stop  offset="0" style="stop-color:#000000"/>
		<stop  offset="0.2569" style="stop-color:#030303"/>
		<stop  offset="0.4238" style="stop-color:#0B0B0B"/>
		<stop  offset="0.5651" style="stop-color:#1A1A1A"/>
		<stop  offset="0.6921" style="stop-color:#2F2F2F"/>
		<stop  offset="0.8095" style="stop-color:#4B4B4B"/>
		<stop  offset="0.9184" style="stop-color:#6C6C6C"/>
		<stop  offset="1" style="stop-color:#8A8A8A"/>
	</radialGradient>
	<circle id="eye_31_" fill="url(#eye_23_)" cx="85.057" cy="165.749" r="8.729"/>
	<radialGradient id="eye_24_" cx="54.0566" cy="164.7485" r="8.7292" gradientUnits="userSpaceOnUse">
		<stop  offset="0" style="stop-color:#000000"/>
		<stop  offset="0.2569" style="stop-color:#030303"/>
		<stop  offset="0.4238" style="stop-color:#0B0B0B"/>
		<stop  offset="0.5651" style="stop-color:#1A1A1A"/>
		<stop  offset="0.6921" style="stop-color:#2F2F2F"/>
		<stop  offset="0.8095" style="stop-color:#4B4B4B"/>
		<stop  offset="0.9184" style="stop-color:#6C6C6C"/>
		<stop  offset="1" style="stop-color:#8A8A8A"/>
	</radialGradient>
	<circle id="eye_30_" fill="url(#eye_24_)" cx="54.057" cy="164.749" r="8.729"/>
</g>
<g id="five">
	<radialGradient id="bg_9_" cx="163.2148" cy="146.5903" r="56.3448" gradientUnits="userSpaceOnUse">
		<stop  offset="0" style="stop-color:#FFFFFF"/>
		<stop  offset="0.4573" style="stop-color:#FDFDFD"/>
		<stop  offset="0.6236" style="stop-color:#F6F6F6"/>
		<stop  offset="0.7425" style="stop-color:#EAEAEA"/>
		<stop  offset="0.8387" style="stop-color:#DADADA"/>
		<stop  offset="0.9202" style="stop-color:#C4C4C4"/>
		<stop  offset="0.9921" style="stop-color:#A9A9A9"/>
		<stop  offset="1" style="stop-color:#A6A6A6"/>
	</radialGradient>
	<path id="bg_4_" fill="url(#bg_9_)" stroke="#B5B5B5" stroke-miterlimit="10" d="M200.715,172.09c0,6.627-5.373,12-12,12h-51
		c-6.627,0-12-5.373-12-12v-51c0-6.627,5.373-12,12-12h51c6.627,0,12,5.373,12,12V172.09z"/>
	<path id="face_4_" fill="#FFFFFF" d="M191.215,166.292c0,5.136-4.163,9.299-9.298,9.299h-39.403c-5.135,0-9.298-4.163-9.298-9.299
		v-39.402c0-5.136,4.163-9.299,9.298-9.299h39.403c5.135,0,9.298,4.163,9.298,9.299V166.292z"/>
	<radialGradient id="eye_25_" cx="178.0566" cy="130.7485" r="8.7292" gradientUnits="userSpaceOnUse">
		<stop  offset="0" style="stop-color:#000000"/>
		<stop  offset="0.2569" style="stop-color:#030303"/>
		<stop  offset="0.4238" style="stop-color:#0B0B0B"/>
		<stop  offset="0.5651" style="stop-color:#1A1A1A"/>
		<stop  offset="0.6921" style="stop-color:#2F2F2F"/>
		<stop  offset="0.8095" style="stop-color:#4B4B4B"/>
		<stop  offset="0.9184" style="stop-color:#6C6C6C"/>
		<stop  offset="1" style="stop-color:#8A8A8A"/>
	</radialGradient>
	<circle id="eye_13_" fill="url(#eye_25_)" cx="178.057" cy="130.749" r="8.729"/>
	<radialGradient id="eye_26_" cx="146.0566" cy="130.7485" r="8.7292" gradientUnits="userSpaceOnUse">
		<stop  offset="0" style="stop-color:#000000"/>
		<stop  offset="0.2569" style="stop-color:#030303"/>
		<stop  offset="0.4238" style="stop-color:#0B0B0B"/>
		<stop  offset="0.5651" style="stop-color:#1A1A1A"/>
		<stop  offset="0.6921" style="stop-color:#2F2F2F"/>
		<stop  offset="0.8095" style="stop-color:#4B4B4B"/>
		<stop  offset="0.9184" style="stop-color:#6C6C6C"/>
		<stop  offset="1" style="stop-color:#8A8A8A"/>
	</radialGradient>
	<circle id="eye_12_" fill="url(#eye_26_)" cx="146.057" cy="130.749" r="8.729"/>
	<radialGradient id="eye_27_" cx="178.0566" cy="165.7485" r="8.7292" gradientUnits="userSpaceOnUse">
		<stop  offset="0" style="stop-color:#000000"/>
		<stop  offset="0.2569" style="stop-color:#030303"/>
		<stop  offset="0.4238" style="stop-color:#0B0B0B"/>
		<stop  offset="0.5651" style="stop-color:#1A1A1A"/>
		<stop  offset="0.6921" style="stop-color:#2F2F2F"/>
		<stop  offset="0.8095" style="stop-color:#4B4B4B"/>
		<stop  offset="0.9184" style="stop-color:#6C6C6C"/>
		<stop  offset="1" style="stop-color:#8A8A8A"/>
	</radialGradient>
	<circle id="eye_11_" fill="url(#eye_27_)" cx="178.057" cy="165.749" r="8.729"/>
	<radialGradient id="eye_28_" cx="146.0566" cy="165.7485" r="8.7292" gradientUnits="userSpaceOnUse">
		<stop  offset="0" style="stop-color:#000000"/>
		<stop  offset="0.2569" style="stop-color:#030303"/>
		<stop  offset="0.4238" style="stop-color:#0B0B0B"/>
		<stop  offset="0.5651" style="stop-color:#1A1A1A"/>
		<stop  offset="0.6921" style="stop-color:#2F2F2F"/>
		<stop  offset="0.8095" style="stop-color:#4B4B4B"/>
		<stop  offset="0.9184" style="stop-color:#6C6C6C"/>
		<stop  offset="1" style="stop-color:#8A8A8A"/>
	</radialGradient>
	<circle id="eye_10_" fill="url(#eye_28_)" cx="146.057" cy="165.749" r="8.729"/>
	<radialGradient id="eye_29_" cx="162.0566" cy="147.7485" r="8.7292" gradientUnits="userSpaceOnUse">
		<stop  offset="0" style="stop-color:#000000"/>
		<stop  offset="0.2569" style="stop-color:#030303"/>
		<stop  offset="0.4238" style="stop-color:#0B0B0B"/>
		<stop  offset="0.5651" style="stop-color:#1A1A1A"/>
		<stop  offset="0.6921" style="stop-color:#2F2F2F"/>
		<stop  offset="0.8095" style="stop-color:#4B4B4B"/>
		<stop  offset="0.9184" style="stop-color:#6C6C6C"/>
		<stop  offset="1" style="stop-color:#8A8A8A"/>
	</radialGradient>
	<circle id="eye_14_" fill="url(#eye_29_)" cx="162.057" cy="147.749" r="8.729"/>
</g>
<g id="six">
	<radialGradient id="bg_11_" cx="254.2148" cy="146.5903" r="56.3448" gradientUnits="userSpaceOnUse">
		<stop  offset="0" style="stop-color:#FFFFFF"/>
		<stop  offset="0.4573" style="stop-color:#FDFDFD"/>
		<stop  offset="0.6236" style="stop-color:#F6F6F6"/>
		<stop  offset="0.7425" style="stop-color:#EAEAEA"/>
		<stop  offset="0.8387" style="stop-color:#DADADA"/>
		<stop  offset="0.9202" style="stop-color:#C4C4C4"/>
		<stop  offset="0.9921" style="stop-color:#A9A9A9"/>
		<stop  offset="1" style="stop-color:#A6A6A6"/>
	</radialGradient>
	<path id="bg_3_" fill="url(#bg_11_)" stroke="#B5B5B5" stroke-miterlimit="10" d="M291.715,172.09c0,6.627-5.373,12-12,12h-51
		c-6.627,0-12-5.373-12-12v-51c0-6.627,5.373-12,12-12h51c6.627,0,12,5.373,12,12V172.09z"/>
	<path id="face_3_" fill="#FFFFFF" d="M282.215,166.292c0,5.136-4.163,9.299-9.298,9.299h-39.403c-5.135,0-9.298-4.163-9.298-9.299
		v-39.402c0-5.136,4.163-9.299,9.298-9.299h39.403c5.135,0,9.298,4.163,9.298,9.299V166.292z"/>
	<radialGradient id="eye_34_" cx="269.0566" cy="128.7485" r="8.7292" gradientUnits="userSpaceOnUse">
		<stop  offset="0" style="stop-color:#000000"/>
		<stop  offset="0.2569" style="stop-color:#030303"/>
		<stop  offset="0.4238" style="stop-color:#0B0B0B"/>
		<stop  offset="0.5651" style="stop-color:#1A1A1A"/>
		<stop  offset="0.6921" style="stop-color:#2F2F2F"/>
		<stop  offset="0.8095" style="stop-color:#4B4B4B"/>
		<stop  offset="0.9184" style="stop-color:#6C6C6C"/>
		<stop  offset="1" style="stop-color:#8A8A8A"/>
	</radialGradient>
	<circle id="eye_20_" fill="url(#eye_34_)" cx="269.057" cy="128.749" r="8.729"/>
	<radialGradient id="eye_35_" cx="237.0566" cy="128.7485" r="8.7292" gradientUnits="userSpaceOnUse">
		<stop  offset="0" style="stop-color:#000000"/>
		<stop  offset="0.2569" style="stop-color:#030303"/>
		<stop  offset="0.4238" style="stop-color:#0B0B0B"/>
		<stop  offset="0.5651" style="stop-color:#1A1A1A"/>
		<stop  offset="0.6921" style="stop-color:#2F2F2F"/>
		<stop  offset="0.8095" style="stop-color:#4B4B4B"/>
		<stop  offset="0.9184" style="stop-color:#6C6C6C"/>
		<stop  offset="1" style="stop-color:#8A8A8A"/>
	</radialGradient>
	<circle id="eye_19_" fill="url(#eye_35_)" cx="237.057" cy="128.749" r="8.729"/>
	<radialGradient id="eye_36_" cx="269.0566" cy="165.7485" r="8.7292" gradientUnits="userSpaceOnUse">
		<stop  offset="0" style="stop-color:#000000"/>
		<stop  offset="0.2569" style="stop-color:#030303"/>
		<stop  offset="0.4238" style="stop-color:#0B0B0B"/>
		<stop  offset="0.5651" style="stop-color:#1A1A1A"/>
		<stop  offset="0.6921" style="stop-color:#2F2F2F"/>
		<stop  offset="0.8095" style="stop-color:#4B4B4B"/>
		<stop  offset="0.9184" style="stop-color:#6C6C6C"/>
		<stop  offset="1" style="stop-color:#8A8A8A"/>
	</radialGradient>
	<circle id="eye_18_" fill="url(#eye_36_)" cx="269.057" cy="165.749" r="8.729"/>
	<radialGradient id="eye_37_" cx="237.0566" cy="165.7485" r="8.7292" gradientUnits="userSpaceOnUse">
		<stop  offset="0" style="stop-color:#000000"/>
		<stop  offset="0.2569" style="stop-color:#030303"/>
		<stop  offset="0.4238" style="stop-color:#0B0B0B"/>
		<stop  offset="0.5651" style="stop-color:#1A1A1A"/>
		<stop  offset="0.6921" style="stop-color:#2F2F2F"/>
		<stop  offset="0.8095" style="stop-color:#4B4B4B"/>
		<stop  offset="0.9184" style="stop-color:#6C6C6C"/>
		<stop  offset="1" style="stop-color:#8A8A8A"/>
	</radialGradient>
	<circle id="eye_17_" fill="url(#eye_37_)" cx="237.057" cy="165.749" r="8.729"/>
	<radialGradient id="eye_38_" cx="237.0566" cy="147.7485" r="8.7292" gradientUnits="userSpaceOnUse">
		<stop  offset="0" style="stop-color:#000000"/>
		<stop  offset="0.2569" style="stop-color:#030303"/>
		<stop  offset="0.4238" style="stop-color:#0B0B0B"/>
		<stop  offset="0.5651" style="stop-color:#1A1A1A"/>
		<stop  offset="0.6921" style="stop-color:#2F2F2F"/>
		<stop  offset="0.8095" style="stop-color:#4B4B4B"/>
		<stop  offset="0.9184" style="stop-color:#6C6C6C"/>
		<stop  offset="1" style="stop-color:#8A8A8A"/>
	</radialGradient>
	<circle id="eye_16_" fill="url(#eye_38_)" cx="237.057" cy="147.749" r="8.729"/>
	<radialGradient id="eye_41_" cx="269.0566" cy="147.7485" r="8.7292" gradientUnits="userSpaceOnUse">
		<stop  offset="0" style="stop-color:#000000"/>
		<stop  offset="0.2569" style="stop-color:#030303"/>
		<stop  offset="0.4238" style="stop-color:#0B0B0B"/>
		<stop  offset="0.5651" style="stop-color:#1A1A1A"/>
		<stop  offset="0.6921" style="stop-color:#2F2F2F"/>
		<stop  offset="0.8095" style="stop-color:#4B4B4B"/>
		<stop  offset="0.9184" style="stop-color:#6C6C6C"/>
		<stop  offset="1" style="stop-color:#8A8A8A"/>
	</radialGradient>
	<circle id="eye_15_" fill="url(#eye_41_)" cx="269.057" cy="147.749" r="8.729"/>
</g>
</svg>
