<?xml version="1.0" encoding="utf-8"?>
<!-- Generator: Adobe Illustrator 16.0.4, SVG Export Plug-In . SVG Version: 6.00 Build 0)  -->
<!DOCTYPE svg PUBLIC "-//W3C//DTD SVG 1.1//EN" "http://www.w3.org/Graphics/SVG/1.1/DTD/svg11.dtd">
<svg version="1.1" id="No_Moves_Possible" xmlns="http://www.w3.org/2000/svg" xmlns:xlink="http://www.w3.org/1999/xlink" x="0px"
	 y="0px" width="940px" height="312px" viewBox="10.5 143.5 940 312" enable-background="new 10.5 143.5 940 312"
	 xml:space="preserve">
<g id="No_1_">
	<path fill="#0A0A0A" d="M33,338.25c0,0,26.25,10,28.5,10S75,346.5,75,346.5V326l14.25,37.25l11.625-1.5L117.688,351
		c0,0,8.281,21,28.031,22.5c12.75-1.5,20.516-4.5,20.516-4.5s21.758-2.5,22.758-67.5c0.559-36.332-8.176-55.309-18.915-64.099
		c-8.473-6.936-18.319-7.151-25.707-7.151c0,0-8.371-1-20.371,9.5V206c0,0-3-3.5-11.5-3S83,210,83,210l0.25,32.5l-16.75-29
		L53.875,211L33,231.75V338.25z"/>
	<path fill="#172D01" d="M34,338V232c0,0,19.25-19.833,20.25-19.333s29.75,57.5,29.75,57.5V210c0,0,28-7,28.333-5.833
		s-1.325,64.5-1.325,64.5s10.825-36.334,33.825-37.667s34.865,30.688,34.833,77.5c-0.032,46.812-16,64-34.833,64
		s-32.983-32.667-33.825-42.5c0,0,2.324,16.5,0.991,18s-20.557,13.768-22.167,13.167S66.5,293.284,61,288.227
		c0,0,2.167,58.607,0.333,58.44S34,338,34,338z"/>
	<path fill="#4FA900" d="M34,337V232c0,0,17.5-16.75,18.5-16.25s32,63.75,32,63.75l0.75-68c0,0,24.426-6.417,24.759-5.25
		s-0.759,82.562-0.759,82.562S113.5,235.5,143,231.5c22.83-3.096,35.031,30.938,35,77.75c-0.015,21.312-3.987,35.916-8.999,45.5
		c-5.995,11.467-13.917,16.354-24.167,16.75c-25.833,1-34.492-51.167-35.333-61c0,0,2.833,36,1.5,37.5s-19.557,12.768-21.167,12.167
		S64.145,291.876,60,284.227c0,0,1.167,61.607-0.667,61.44S34,337,34,337z"/>
	<path fill="#2AFFDE" d="M45.625,334.125L38,330.25V236l7.625-6.75c0,0,15.474,26.088,17.375,30s26,59.25,26,59.25V218l9-1.75V343
		l-7.25,3.75c0,0-36.25-92.75-44.5-97.75L45.625,334.125z"/>
	<path fill="#2AFFDE" d="M143,240.33c-14.33,0-28.33,22-29.33,56.67S127,363.67,143,363s22-32.33,22-65S154,240.33,143,240.33z
		 M140.67,347.67c-10.34,0.33-17.67-18-18-46c-0.34-27.99,8-45.29,18-45.67c8.66-0.33,16.33,12,16,45.67
		C156.33,335.34,151,347.33,140.67,347.67z"/>
	<path fill="#172D01" d="M143.333,265c0,0-9.25,9.673-8.583,36.67s8.583,36.663,8.583,36.663S152,340.5,151.25,298
		C150.594,260.813,143.333,265,143.333,265z"/>
	<path fill="#0A0A0A" d="M143.333,265c0,0-6.25,9.673-5.583,36.67s5.583,36.663,5.583,36.663s8.369-3.499,7-40.666
		S143.333,265,143.333,265z"/>
</g>
<g id="Moves">
	<path fill="#0A0A0A" d="M502,283c-4.33-10,1.67-22.33,1.67-22.33l19.33,4.16l-1.67-47.16c-13.87-4-23.9-2.82-31.021,1.48
		c-11.869,7.16-15.64,21.18-15.64,21.18c-1-13.67-12-27-25.34-28c-13.33-1-23,16-23,16l-24-30.33l-9.66,75.5c0,0-9-70.17-9.34-73.5
		c-0.33-3.33-2.66-4-2.66-4l-24,34.67c0,0-5-16-25.34-15.34c-20.33,0.67-28,30.67-28,30.67L299,176.67c0,0-2.33-2-5.33-3.34
		c-3-1.33-28.34-3-28.34-3l-11,70l-10.66-65l-7.34-3.33l-27,14.67l-16,190l29.34,19.66L231,393l3-44.67l3.67,21.34l27,3.83l6-1.99
		l3-22.51l5,56L309,391.67c5.67,10.33,16.67,15.66,20.67,16c4,0.33,8,2.33,22-8.34C365.67,388.67,370,350,370,350l8,58l25,1.67l3-3
		l8.67-61.67c6.33,52.67,26,64.33,39.33,66.67c13.33,2.33,19-1.67,19-1.67s7,3.78,18.67,3.33c18.76-0.72,31-19.33,32.66-61.33
		C526,310,506.33,293,502,283z M333.67,351.33c-8.34-30.33,0-79.66,0-79.66C344.33,306.67,333.67,351.33,333.67,351.33z
		 M448.5,264.83L451,277h-5L448.5,264.83z M486.33,365.67c-6.66-2-12.66-4.67-12.66-4.67s-10,4.98-15.67,4.16
		c-5.67-0.83-13.33-34.83-14-46.16h35c0,0,1.67,5,6.33,10.67c4.67,5.66,7.34,9.33,7.34,21.66
		C492.67,363.67,493,367.67,486.33,365.67z"/>
	<path fill="#172D01" d="M500,283c-4.33-10,3-25,3-25l18.67,4l-1.34-42.67c-13.87-4-22.9-2.48-30.021,1.82
		c-11.869,7.16-15.31,25.18-15.31,25.18c-1-13.67-12.33-31.66-25.67-32.66c-13.33-1-22.66,17.33-22.66,17.33l-24.84-28.05
		l-10.5,104.72c0,0-7.35-81.33-8.27-91.34c-0.85-9.32-1.86-8.43-4.06-15.66l-23.67,34.66c0,0-6.33-18.89-26.66-18
		c-22.67,1-30.34,52.34-30.34,52.34l-1.66-54.34c0,0-1-38.66-4-40c-3-1.33-26-3-26-3l-15,95.67l-13-75.33l-3-19l-25.34,14.66
		l-15,187.34l26,17l2-20.17l4.34-76.83L239,369.33l23,2.18l3.33-18.18l8.34-59l6,108l27.33-12l-2-12c9,21.34,20.67,26.66,24.67,27
		c4,0.33,10.87,1.97,22-11.66c13.33-16.34,15.66-79.34,15.66-79.34L380,406l21.33,1.33L405,390l10-72.33
		c3.67,77.33,25.67,89.66,39,92c13.33,2.33,19-1.67,19-1.67s7,3.78,18.67,3.33c18.76-0.72,29-17.33,30.66-59.33
		C524,310,504.33,293,500,283z M339,312.25c-0.75,50-7.25,48-7.25,48c-14.5-32,0-98.75,0-98.75S339.75,262.25,339,312.25z
		 M448.5,258l4.5,22h-9L448.5,258z M489.75,369.17c-4.65-0.11-16.25-5.17-16.25-5.17s-9.5,9.25-19.75,3S441,317,441,317h39
		c1.75,6.25,10.5,13.5,14.5,23.5S496.1,369.31,489.75,369.17z"/>
	<path fill="#4FA900" d="M500,283c-4.33-10,1.33-26.33,1.33-26.33l19.34,3.66l-0.34-41c-13.87-4-22.9-2.48-30.021,1.82
		c-11.869,7.16-15.64,31.85-15.64,31.85c-1-13.67-12.33-36.33-25.67-37.33c-13.33-1-22.67,18-22.67,18l-21.7-27.56l-13.96,117.56
		c0,0-6.69-97.33-7.61-107.34c-0.85-9.32-1.86-8.43-4.06-15.66l-23.67,34.66c0,0-6.33-18.89-26.66-18c-22.67,1-31,65-31,65l-1-67
		c0,0-1-38.66-4-40c-3-1.33-26-3-26-3l-16,107.17L237,189.33l-2.67-13.66l-24,12.66l-15,186.34l26,18l1.34-24.34l5-72.66L239,369.33
		l23,2.18l3.33-18.18l8.34-59l6,108l27.33-12l-2-12c9,21.34,20.67,26.66,24.67,27c4,0.33,10.87,1.97,22-11.66
		c13.33-16.34,15-89.34,15-89.34L380,406l21.33,1.33L405,390l10.67-81.67c3.66,77.34,25,99,38.33,101.34c13.33,2.33,19-1.67,19-1.67
		s7,3.78,18.67,3.33c18.76-0.72,29-17.33,30.66-59.33C524,310,504.33,293,500,283z M332.25,366.5C311.5,311.25,331,255,331,255
		C352.5,303.5,332.25,366.5,332.25,366.5z M448.25,253.25l5.5,26.75h-11.5L448.25,253.25z M496.5,351c-0.33,9-2.58,19.75-6.25,19.75
		c-3.66,0-16.75-5.75-16.75-5.75s-13.5,5.84-21.5,0.5s-12.42-45.17-10.75-49.5l38.75,0.25c0,0,3.92,6.75,8.25,12.75
		C492.59,335,496.84,342,496.5,351z"/>
	<polygon fill="#2AFFDE" points="201.5,371.348 209.75,376.917 222.042,223.625 244.354,360.646 251.344,361.656 274.005,217.995 
		285.336,389.664 294.335,385.166 280.667,182 273,182 247.917,330.667 224.333,188.667 216,192.667 	"/>
	<path fill="#2AFFDE" d="M329.33,226.33c0,0-25.66,4.67-25.33,82.34c0.33,77.66,20.67,90,25.33,89.66c4.67-0.33,27.34-4.66,27.34-84
		C356.67,235,336,226,329.33,226.33z M330.33,377.67c-8-1.34-17.66-23.34-18.33-69.34s10.66-61,18.33-61.66
		c6.31-0.55,19,19.33,16.67,68.33S338.33,379,330.33,377.67z"/>
	<polygon fill="#2AFFDE" points="363,236.499 371.667,226.237 390,362.969 408.333,226.301 416,233.821 392.667,398 387,398 	"/>
	<path fill="#2AFFDE" d="M447.33,223c-22.66,2.33-24.33,86.33-24,98c0.34,11.67,7.67,92.33,42.34,80l0.66-23
		c0,0-33.33,19.67-34.33-70h39C471,308,472.87,220.37,447.33,223z M462,289h-29c0,0-0.56-47.08,14.5-46S462,289,462,289z"/>
	<path fill="#2AFFDE" d="M512,249v-23c0,0-13.667-6-23,10s-9,58.452-1,73.667s17.667,25,17.334,45
		c-0.384,23.035-7.668,27.667-25.334,24.667V402c0,0,13.668,4.34,21.334-3.663s13-30.669,13-46.003S510,317.673,500.667,302.67
		s-12.333-16.67-11-35.336S501.666,244.333,512,249z"/>
</g>
<g id="Possible">
	<path fill="#0A0A0A" d="M914.5,304c0,0-5.5,2-14.5,5s-6-5-6-5l34-4.5c2-57.5-23.5-59-38.5-59.5s-20.5,5-20.5,5v-49.5l-30-8.5l-11,3
		v56c-8-10-18-13-18-13v-53c0,0-24-8-28.5-7.67S771,176,771,176v8.5c-6.5-2.5-10-1.5-19.5,2s-8,8-8.5,17.5s0.04,16.88,8.5,18.94
		C765,226.24,771,223,771,223v5.5c-4,0-23.75-2.5-35.25-3.6S714,233,714,233v-8.1c-44-12.1-50.26,16.61-50.26,16.61
		c-2-7-11.25-26-26.25-26s-25.51,13.51-25.51,13.51c-2-41-19.53-58.47-30.53-62.97s-24.54-4.95-29.54-3.45s-8.602,14.09-8.66,18.59
		c-0.07,4.5,0.37,200.2-0.13,217.2s1.63,11.762,1.63,11.762L576.5,407l1-70c14.5-2.5,19-13.5,19-13.5c7.5,81.5,26.5,84,40.5,83
		s19-11.5,19-11.5l6,2c30.5,4,39.5-8.5,39.5-8.5l4,2c25,4,38.5-7,38.5-7l8.5,1.5l31-6l5.5,1c30-8,38.5-17,38.5-17s7.5,3,11,3
		s25.58-6.29,31.5-10.5c1-5,0-13.5,0-13.5s9.5,5,26,5s27-9.5,27-9.5c0-4.5,5.11-32.5,5.11-32.5L914.5,304z M578,264.67
		c-2.67-5.34,0-27.67,0-27.67C580,249.67,578,264.67,578,264.67z M634.33,351c-10-27.67,0-77.33,0-77.33
		C642.67,311.67,634.33,351,634.33,351z M680,343c-1,16-10,10-10,10c3.33-6.33,3-29,3-29S681,327,680,343z M700,290
		c0,0-7.33-7.33-7-17.67c0.33-10.33,7-6.33,7-6.33V290z M715.33,348c2.34-8,0-26.33,0-26.33s6,2.33,7,13.16
		C723.85,351.29,715.33,348,715.33,348z M744,290c0,0-6.67-2-6.67-21c0-4.36,6.67,0,6.67,0V290z"/>
	<path fill="#172D01" d="M889.5,242c-15-0.5-20,23.5-20,23.5l-1.5-69l-28-8.5l0.5,16.5l1,62C833,245,809,236,809,236v-55
		c0,0-21.27-6.52-25.67-5.5c-2.16,0.5-1.33,13-1.33,13l-9-3.83c-6.5-2.5-15.17,0.33-18,3.33c-3.65,3.86-2.53,9.71-2.17,18.5
		c0.34,7.97,0.47,10.63,4.17,12.5c17.5,8.83,25-2.17,25-2.17l0.33,14.67c-4,0-34.5-2.27-46.021-3.17
		c-19.31-1.5-22.979,19.34-22.979,19.34l-0.5-21.17C665.17,212.67,666.5,258,666.5,258c-2-7-14-39.83-29-39.83
		s-26.67,28.5-26.67,28.5c-2-41-9.33-70.34-29.33-78.34c-11.04-4.41-22.5-3.83-27.5-2.33s-7.44,12-7.5,16.5
		c-0.07,4.5,1,198.84,0.5,215.84s1.5,9.16,1.5,9.16l28-0.5l-1-73c18-0.5,26.5-21.88,26.5-21.88c2.5,81.38,18.31,87.97,32,91.05
		c17,3.83,30.5-26.67,30.5-26.67L666,395c30.5,4,41.5-16,41.5-16l1,9.5C745.5,398,757,357,757,357l-2,25.5l28-6v-14
		c1.12,4.42,7,14,7,14s17.5-0.5,29.5-10.5c14.94-12.45,22.5-34.5,22.5-34.5s-3.5,31.5,0,31.5s19.58-4.79,25.5-9
		c1-5,1.5-33.5,1.5-33.5s4,24,27,24.5c16.5,0.36,27-7.5,27-7.5c0-4.5,2.5-31,2.5-31s-17,8.11-25,8.11c-9.49,0-10-14.11-10-14.11
		l35.5-2C928,241,904.5,242.5,889.5,242z M576,289.25c0,0-0.75-77,0-79.5C576,209.75,590,245.25,576,289.25z M637.25,362.5
		c0,0-17.75-45.25,0-102.75C637.25,259.75,652,315.5,637.25,362.5z M685.5,355.5c-4,2.75-15.5,0-15.5,0s4.25-35.5,2-44.38
		c0,0,9.25,14.13,13.5,19.63S689.5,352.75,685.5,355.5z M728.5,346.5c-1.5,6.25-12.75,3-12.75,3s-1.5-29.5-3.25-38.38
		c-1.75-8.87-13.75-19.37-18-25.37s-2.75-22.25,0-23.5c2.71-1.23,13.96,1.43,14.24,1.5c-0.09,0-1.57,0.34-0.24,21
		c1.37,21.36,7.75,26.75,17,39.25S730,340.25,728.5,346.5z M737.5,282.75c-3-6.5-2.75-19,0-19.5s16.25,3,16.25,3L756,313
		C753,300.25,740.5,289.25,737.5,282.75z M810,333v-60c0,0,8.5-0.25,9,24.75S810,333,810,333z M891,276c0,0,0-7.25,6.25-7.75
		S906,276,906,276H891z"/>
	<path fill="#4FA900" d="M891.5,243c-15-0.5-23.5,26.333-23.5,26.333l-1-71.833l-25.333-7.167L842.334,205l0.333,69
		c-10-33.333-34.667-37-34.667-37v-55c0,0-20.27-6.52-24.67-5.5c-2.16,0.5-1.33,12-1.33,12l-9-2.83c-6.5-2.5-14.17-0.67-17,2.33
		c-3.65,3.86-2.53,9.71-2.17,18.5c0.34,7.97,0.47,9.63,4.17,11.5c17.5,8.83,25-3.17,25-3.17l0.33,18.67
		c-4,0-35.522-3.021-47.021-4.17c-16.643-1.663-22.979,20.34-22.979,20.34l-1.5-22.17C664.17,213.67,667,263.333,667,263.333
		c-2-7-13.666-43.333-30.333-43.333c-15,0-25.837,29.67-25.837,29.67c-5.409-43.61-9.33-72.34-29.33-80.34
		c-11.04-4.41-22.5-3.83-27.5-2.33s-5.606,12.167-5.666,16.667c-0.07,4.5,1.083,223.333,1.083,223.333L575,406v-74
		c18-0.5,28-25.333,28-25.333c0.667,82,17.048,94.109,30.875,96.503C656,407,664.667,370,664.667,370l1.302,25
		c31.365,7.278,42.698-22,42.698-22l-0.175,14.5c37,9.5,49.842-36.167,49.842-36.167l-1.667,29.001l25.333-5L782.334,361
		c1.12,4.42,8.333,13.334,8.333,13.334S807.5,375,819.5,365c14.94-12.45,23.5-37.333,23.5-37.333S839.5,361,843,361
		s18.58-2.79,24.5-7c1-5,1.167-37,1.167-37S873,342.5,896,343c16.5,0.36,26-5.5,26-5.5c0-4.5,2.154-28.134,2.154-28.134
		s-15.82,6.968-23.82,6.968c-9.49,0-10.834-16.834-10.834-16.834l35.167-3.166C926.667,238.834,898.646,243.238,891.5,243z
		 M575,296.25c0,0-1.75-90-1-92.5C574,203.75,596.667,247,575,296.25z M637.25,367.5c0,0-20.25-55.5,0-112.75
		C637.25,254.75,654.667,320.334,637.25,367.5z M686.5,357.5c-4,2.75-18.5,0-18.5,0s5.25-40.5,3-49.38c0,0,12.25,17.13,16.5,22.63
		S690.5,354.75,686.5,357.5z M729.5,348.5c-3.166,5.834-15.75,3-15.75,3s-1.5-31.5-3.25-40.38c-1.75-8.87-13.75-19.37-18-25.37
		s-1.75-24.25,1-25.5c2.71-1.23,16.96,1.43,17.24,1.5c-0.09,0-1.57,2.34-0.24,23c1.37,21.36,7.75,26.75,17,39.25
		S732.565,342.851,729.5,348.5z M736.5,282.75c-3-6.5-2.75-21,0-21.5s19.25,4,19.25,4L757,319C754,306.25,739.5,289.25,736.5,282.75
		z M809,337v-68c0,0,11.5,3.75,12,28.75S809,337,809,337z M891,276c0,0,0-7.25,6.25-7.75S906,276,906,276H891z"/>
	<path fill="#2AFFDE" d="M587.67,181c-9.34-9.67-28.67-10.67-30-8.67C556.33,174.33,559,400,559,400h8l0.67-71.67
		c0,0,24,0,31.66-39.66C609.52,235.95,597,190.67,587.67,181z M593.33,269.67C587.33,312.33,568,305,568,305V194
		C589.67,194.33,599.33,227,593.33,269.67z"/>
	<path fill="#2AFFDE" d="M639.67,225.9c-9.89-1.52-27,23.84-27,88.14c0,64.29,15.66,82.96,24.66,82.96
		c11.67,0,27.63-23.33,27.67-90.67C665.04,244.67,647.67,227.13,639.67,225.9z M638.83,376.33C633,376,623,369.33,621,319.67
		c-2-49.67,11.04-73.74,17.83-73C645,247.33,656.33,261,656,310S644.67,376.67,638.83,376.33z"/>
	<path fill="#2AFFDE" d="M706,253v-19c0,0-14.28-5.474-20.333,3C677.334,248.667,671,285.334,683,306.667s18.667,17,16.667,38
		s-8.07,23.929-24.667,23.666V387c0,0,11.334,3.667,18.334-2.333s15.334-18.668,15-43.334s-6.99-32.999-16.662-46.666
		S684.667,273,685.667,266S689,248.333,706,253z"/>
	<path fill="#2AFFDE" d="M750,237v17c0,0-19.333-5.667-21,11.667C727.556,280.689,733.333,292,739.5,300
		s13.834,12.334,12.834,37.667s-9.021,45.124-32,44L719,363c0,0,14,0.666,19-4.667s8.34-20.09,3.674-32.757S719,308.749,720,277.333
		C720.724,254.59,726.333,230,750,237z"/>
	<polygon fill="#2AFFDE" points="767,239 776,239 776,370 767,371.333 	"/>
	<polygon fill="#2AFFDE" points="767,213.167 776,214.667 776,192 767,190.667 	"/>
	<path fill="#2AFFDE" d="M803.67,243l-1-56l-6.67-2v182c0,0,44.29,0.68,44.33-66.33C840.37,243,803.67,243,803.67,243z M803,351v-92
		c11,0.67,28.87,2.78,28.67,46C831.46,348.22,803,351,803,351z"/>
	<polygon fill="#2AFFDE" points="855,200.833 863,202.667 863,348 855,350.334 	"/>
	<path fill="#2AFFDE" d="M898.33,250.67c-17.66-0.08-21.33,35.66-21,46c0.34,10.33,3,54.33,39.34,36l1.66-10.34
		c0,0-32.33,16.68-32.66-28.49l36.33-2.51C922,291.33,925.74,250.79,898.33,250.67z M914,283l-27,1c0,0,0-22.333,12.74-23
		C914.801,260.211,914,283,914,283z"/>
</g>
</svg>
