<?xml version="1.0" encoding="utf-8"?>
<!-- Generator: Adobe Illustrator 16.0.4, SVG Export Plug-In . SVG Version: 6.00 Build 0)  -->
<!DOCTYPE svg PUBLIC "-//W3C//DTD SVG 1.1//EN" "http://www.w3.org/Graphics/SVG/1.1/DTD/svg11.dtd">
<svg version="1.1" id="No_Moves_Possible" xmlns="http://www.w3.org/2000/svg" xmlns:xlink="http://www.w3.org/1999/xlink" x="0px"
	 y="0px" width="940px" height="312px" viewBox="0 0 940 312" enable-background="new 0 0 940 312" xml:space="preserve">
<g id="No_1_">
	<path fill="#0A0A0A" d="M20,206.883c0,0,26.25,10,28.5,10s13.5-1.75,13.5-1.75v-20.5l14.25,37.25l11.625-1.5l16.813-10.75
		c0,0,8.281,21,28.031,22.5c12.75-1.5,20.516-4.5,20.516-4.5s21.758-2.5,22.758-67.5c0.559-36.332-8.176-55.309-18.915-64.1
		c-8.473-6.936-18.319-7.15-25.707-7.15c0,0-8.371-1-20.371,9.5v-33.75c0,0-3-3.5-11.5-3s-29.5,7-29.5,7l0.25,32.5l-16.75-29
		l-12.625-2.5L20,100.383V206.883z"/>
	<path fill="#172D01" d="M21,206.633v-106c0,0,19.25-19.833,20.25-19.333S71,138.8,71,138.8V78.633c0,0,28-7,28.333-5.833
		s-1.325,64.5-1.325,64.5s10.825-36.334,33.825-37.667s34.865,30.688,34.833,77.5s-16,64-34.833,64s-32.983-32.667-33.825-42.5
		c0,0,2.324,16.5,0.991,18S78.442,230.4,76.832,229.8S53.5,161.917,48,156.859c0,0,2.167,58.607,0.333,58.44S21,206.633,21,206.633z
		"/>
	<path fill="#4FA900" d="M21,205.633v-105c0,0,17.5-16.75,18.5-16.25s32,63.75,32,63.75l0.75-68c0,0,24.426-6.417,24.759-5.25
		s-0.759,82.562-0.759,82.562s4.25-53.312,33.75-57.312c22.83-3.096,35.031,30.938,35,77.75c-0.015,21.312-3.987,35.916-8.999,45.5
		c-5.995,11.467-13.917,16.354-24.167,16.75c-25.833,1-34.492-51.167-35.333-61c0,0,2.833,36,1.5,37.5S78.444,229.4,76.834,228.8
		S51.145,160.509,47,152.859c0,0,1.167,61.607-0.667,61.44S21,205.633,21,205.633z"/>
	<path fill="#2AFFDE" d="M32.625,202.758L25,198.883v-94.25l7.625-6.75c0,0,15.474,26.088,17.375,30s26,59.25,26,59.25v-100.5
		l9-1.75v126.75l-7.25,3.75c0,0-36.25-92.75-44.5-97.75L32.625,202.758z"/>
	<path fill="#2AFFDE" d="M130,108.963c-14.33,0-28.33,22-29.33,56.67s13.33,66.67,29.33,66s22-32.33,22-65S141,108.963,130,108.963z
		 M127.67,216.303c-10.34,0.33-17.67-18-18-46c-0.34-27.99,8-45.29,18-45.67c8.66-0.33,16.33,12,16,45.67
		C143.33,203.973,138,215.963,127.67,216.303z"/>
	<path fill="#172D01" d="M130.333,133.633c0,0-9.25,9.673-8.583,36.67s8.583,36.663,8.583,36.663s8.667,2.167,7.917-40.333
		C137.594,129.445,130.333,133.633,130.333,133.633z"/>
	<path fill="#0A0A0A" d="M130.333,133.633c0,0-6.25,9.673-5.583,36.67s5.583,36.663,5.583,36.663s8.369-3.499,7-40.666
		S130.333,133.633,130.333,133.633z"/>
</g>
<g id="Moves">
	<path fill="#0A0A0A" d="M489,151.633c-4.33-10,1.67-22.33,1.67-22.33l19.33,4.16l-1.67-47.16c-13.87-4-23.9-2.82-31.021,1.48
		c-11.868,7.16-15.64,21.18-15.64,21.18c-1-13.67-12-27-25.34-28c-13.33-1-23,16-23,16l-24-30.33l-9.66,75.5c0,0-9-70.17-9.34-73.5
		c-0.33-3.33-2.66-4-2.66-4l-24,34.67c0,0-5-16-25.34-15.34c-20.33,0.67-28,30.67-28,30.67L286,45.303c0,0-2.33-2-5.33-3.34
		c-3-1.33-28.34-3-28.34-3l-11,70l-10.66-65l-7.34-3.33l-27,14.67l-16,190l29.34,19.66l8.33-3.33l3-44.67l3.67,21.34l27,3.83l6-1.99
		l3-22.51l5,56l30.33-13.33c5.67,10.33,16.67,15.66,20.67,16c4,0.33,8,2.33,22-8.34c14-10.66,18.33-49.33,18.33-49.33l8,58l25,1.67
		l3-3l8.67-61.67c6.33,52.67,26,64.33,39.33,66.67c13.33,2.33,19-1.67,19-1.67s7,3.78,18.67,3.33c18.76-0.72,31-19.33,32.66-61.33
		C513,178.633,493.33,161.633,489,151.633z M320.67,219.963c-8.34-30.33,0-79.66,0-79.66
		C331.33,175.303,320.67,219.963,320.67,219.963z M435.5,133.463l2.5,12.17h-5L435.5,133.463z M473.33,234.303
		c-6.66-2-12.66-4.67-12.66-4.67s-10,4.98-15.67,4.16c-5.67-0.83-13.33-34.83-14-46.16h35c0,0,1.67,5,6.33,10.67
		c4.67,5.66,7.34,9.33,7.34,21.66C479.67,232.303,480,236.303,473.33,234.303z"/>
	<path fill="#172D01" d="M487,151.633c-4.33-10,3-25,3-25l18.67,4l-1.34-42.67c-13.87-4-22.9-2.48-30.021,1.82
		c-11.869,7.16-15.31,25.18-15.31,25.18c-1-13.67-12.33-31.66-25.67-32.66c-13.33-1-22.66,17.33-22.66,17.33l-24.84-28.05
		l-10.5,104.72c0,0-7.35-81.33-8.27-91.34c-0.85-9.32-1.86-8.43-4.06-15.66l-23.67,34.66c0,0-6.33-18.891-26.66-18
		c-22.67,1-30.34,52.34-30.34,52.34l-1.66-54.34c0,0-1-38.66-4-40c-3-1.33-26-3-26-3l-15,95.67l-13-75.33l-3-19l-25.34,14.66
		l-15,187.34l26,17l2-20.17l4.34-76.83L226,237.963l23,2.18l3.33-18.18l8.34-59l6,108l27.33-12l-2-12c9,21.34,20.67,26.66,24.67,27
		c4,0.33,10.87,1.97,22-11.66c13.33-16.34,15.66-79.34,15.66-79.34l12.67,91.67l21.33,1.33l3.67-17.33l10-72.33
		c3.67,77.33,25.67,89.66,39,92c13.33,2.33,19-1.67,19-1.67s7,3.78,18.67,3.33c18.76-0.72,29-17.33,30.66-59.33
		C511,178.633,491.33,161.633,487,151.633z M326,180.883c-0.75,50-7.25,48-7.25,48c-14.5-32,0-98.75,0-98.75
		S326.75,130.883,326,180.883z M435.5,126.633l4.5,22h-9L435.5,126.633z M476.75,237.803c-4.65-0.11-16.25-5.17-16.25-5.17
		s-9.5,9.25-19.75,3s-12.75-50-12.75-50h39c1.75,6.25,10.5,13.5,14.5,23.5S483.1,237.942,476.75,237.803z"/>
	<path fill="#4FA900" d="M487,151.633c-4.33-10,1.33-26.33,1.33-26.33l19.34,3.66l-0.34-41c-13.87-4-22.9-2.48-30.021,1.82
		c-11.869,7.16-15.64,31.85-15.64,31.85c-1-13.67-12.33-36.33-25.67-37.33c-13.33-1-22.67,18-22.67,18l-21.7-27.561l-13.96,117.561
		c0,0-6.69-97.33-7.61-107.34c-0.85-9.32-1.86-8.43-4.06-15.66l-23.67,34.66c0,0-6.33-18.891-26.66-18c-22.67,1-31,65-31,65l-1-67
		c0,0-1-38.66-4-40c-3-1.33-26-3-26-3l-16,107.17L224,57.963l-2.67-13.66l-24,12.66l-15,186.34l26,18l1.34-24.34l5-72.66
		l11.33,73.66l23,2.18l3.33-18.18l8.34-59l6,108l27.33-12l-2-12c9,21.34,20.67,26.66,24.67,27c4,0.33,10.87,1.97,22-11.66
		c13.33-16.34,15-89.34,15-89.34L367,274.633l21.33,1.33l3.67-17.33l10.67-81.67c3.66,77.34,25,99,38.33,101.34
		c13.33,2.33,19-1.67,19-1.67s7,3.78,18.67,3.33c18.76-0.72,29-17.33,30.66-59.33C511,178.633,491.33,161.633,487,151.633z
		 M319.25,235.133c-20.75-55.25-1.25-111.5-1.25-111.5C339.5,172.133,319.25,235.133,319.25,235.133z M435.25,121.883l5.5,26.75
		h-11.5L435.25,121.883z M483.5,219.633c-0.33,9-2.58,19.75-6.25,19.75c-3.66,0-16.75-5.75-16.75-5.75s-13.5,5.84-21.5,0.5
		s-12.42-45.17-10.75-49.5l38.75,0.25c0,0,3.92,6.75,8.25,12.75C479.59,203.633,483.84,210.633,483.5,219.633z"/>
	<polygon fill="#2AFFDE" points="188.5,239.98 196.75,245.55 209.042,92.258 231.354,229.279 238.344,230.289 261.005,86.628 
		272.336,258.297 281.335,253.799 267.667,50.633 260,50.633 234.917,199.3 211.333,57.3 203,61.3 	"/>
	<path fill="#2AFFDE" d="M316.33,94.963c0,0-25.66,4.67-25.33,82.34c0.33,77.66,20.67,90,25.33,89.66c4.67-0.33,27.34-4.66,27.34-84
		C343.67,103.633,323,94.633,316.33,94.963z M317.33,246.303c-8-1.34-17.66-23.34-18.33-69.34s10.66-61,18.33-61.66
		c6.31-0.55,19,19.33,16.67,68.33S325.33,247.633,317.33,246.303z"/>
	<polygon fill="#2AFFDE" points="350,105.132 358.667,94.869 377,231.602 395.333,94.934 403,102.453 379.667,266.633 374,266.633 	
		"/>
	<path fill="#2AFFDE" d="M434.33,91.633c-22.66,2.33-24.33,86.33-24,98c0.34,11.67,7.67,92.33,42.34,80l0.66-23
		c0,0-33.33,19.67-34.33-70h39C458,176.633,459.87,89.003,434.33,91.633z M449,157.633h-29c0,0-0.56-47.08,14.5-46
		S449,157.633,449,157.633z"/>
	<path fill="#2AFFDE" d="M499,117.633v-23c0,0-13.667-6-23,10s-9,58.452-1,73.667s17.667,25,17.334,45
		c-0.384,23.035-7.668,27.667-25.334,24.667v22.666c0,0,13.668,4.34,21.334-3.663s13-30.669,13-46.003s-4.334-34.661-13.667-49.664
		s-12.333-16.67-11-35.336S488.666,112.966,499,117.633z"/>
</g>
<g id="Possible">
	<path fill="#0A0A0A" d="M901.5,172.633c0,0-5.5,2-14.5,5s-6-5-6-5l34-4.5c2-57.5-23.5-59-38.5-59.5s-20.5,5-20.5,5v-49.5l-30-8.5
		l-11,3v56c-8-10-18-13-18-13v-53c0,0-24-8-28.5-7.67s-10.5,3.67-10.5,3.67v8.5c-6.5-2.5-10-1.5-19.5,2s-8,8-8.5,17.5
		s0.04,16.88,8.5,18.939c13.5,3.301,19.5,0.061,19.5,0.061v5.5c-4,0-23.75-2.5-35.25-3.6c-11.5-1.101-21.75,8.1-21.75,8.1v-8.1
		c-44-12.101-50.26,16.609-50.26,16.609c-2-7-11.25-26-26.25-26s-25.51,13.51-25.51,13.51c-2-41-19.53-58.47-30.53-62.97
		s-24.54-4.95-29.54-3.45s-8.603,14.09-8.66,18.59c-0.07,4.5,0.37,200.2-0.13,217.2s1.63,11.763,1.63,11.763l31.75-3.152l1-70
		c14.5-2.5,19-13.5,19-13.5c7.5,81.5,26.5,84,40.5,83s19-11.5,19-11.5l6,2c30.5,4,39.5-8.5,39.5-8.5l4,2c25,4,38.5-7,38.5-7l8.5,1.5
		l31-6l5.5,1c30-8,38.5-17,38.5-17s7.5,3,11,3s25.58-6.29,31.5-10.5c1-5,0-13.5,0-13.5s9.5,5,26,5s27-9.5,27-9.5
		c0-4.5,5.11-32.5,5.11-32.5L901.5,172.633z M565,133.303c-2.67-5.34,0-27.67,0-27.67C567,118.303,565,133.303,565,133.303z
		 M621.33,219.633c-10-27.67,0-77.33,0-77.33C629.67,180.303,621.33,219.633,621.33,219.633z M667,211.633c-1,16-10,10-10,10
		c3.33-6.33,3-29,3-29S668,195.633,667,211.633z M687,158.633c0,0-7.33-7.33-7-17.67c0.33-10.33,7-6.33,7-6.33V158.633z
		 M702.33,216.633c2.34-8,0-26.33,0-26.33s6,2.33,7,13.16C710.85,219.923,702.33,216.633,702.33,216.633z M731,158.633
		c0,0-6.67-2-6.67-21c0-4.359,6.67,0,6.67,0V158.633z"/>
	<path fill="#172D01" d="M876.5,110.633c-15-0.5-20,23.5-20,23.5l-1.5-69l-28-8.5l0.5,16.5l1,62c-8.5-21.5-32.5-30.5-32.5-30.5v-55
		c0,0-21.27-6.52-25.67-5.5c-2.16,0.5-1.33,13-1.33,13l-9-3.83c-6.5-2.5-15.17,0.33-18,3.33c-3.65,3.859-2.53,9.71-2.17,18.5
		c0.34,7.971,0.47,10.63,4.17,12.5c17.5,8.83,25-2.17,25-2.17l0.33,14.67c-4,0-34.5-2.27-46.021-3.17
		c-19.31-1.5-22.979,19.34-22.979,19.34l-0.5-21.17c-47.66-13.83-46.33,31.5-46.33,31.5c-2-7-14-39.83-29-39.83
		s-26.67,28.5-26.67,28.5c-2-41-9.33-70.34-29.33-78.34c-11.04-4.41-22.5-3.83-27.5-2.33s-7.44,12-7.5,16.5
		c-0.07,4.5,1,198.84,0.5,215.84s1.5,9.16,1.5,9.16l28-0.5l-1-73c18-0.5,26.5-21.88,26.5-21.88c2.5,81.38,18.31,87.97,32,91.05
		c17,3.83,30.5-26.67,30.5-26.67l1.5,18.5c30.5,4,41.5-16,41.5-16l1,9.5c37,9.5,48.5-31.5,48.5-31.5l-2,25.5l28-6v-14
		c1.12,4.42,7,14,7,14s17.5-0.5,29.5-10.5c14.94-12.45,22.5-34.5,22.5-34.5s-3.5,31.5,0,31.5s19.58-4.79,25.5-9
		c1-5,1.5-33.5,1.5-33.5s4,24,27,24.5c16.5,0.36,27-7.5,27-7.5c0-4.5,2.5-31,2.5-31s-17,8.11-25,8.11c-9.49,0-10-14.11-10-14.11
		l35.5-2C915,109.633,891.5,111.133,876.5,110.633z M563,157.883c0,0-0.75-77,0-79.5C563,78.383,577,113.883,563,157.883z
		 M624.25,231.133c0,0-17.75-45.25,0-102.75C624.25,128.383,639,184.133,624.25,231.133z M672.5,224.133c-4,2.75-15.5,0-15.5,0
		s4.25-35.5,2-44.38c0,0,9.25,14.13,13.5,19.63S676.5,221.383,672.5,224.133z M715.5,215.133c-1.5,6.25-12.75,3-12.75,3
		s-1.5-29.5-3.25-38.38c-1.75-8.87-13.75-19.37-18-25.37s-2.75-22.25,0-23.5c2.71-1.23,13.96,1.43,14.24,1.5
		c-0.09,0-1.57,0.34-0.24,21c1.37,21.36,7.75,26.75,17,39.25S717,208.883,715.5,215.133z M724.5,151.383c-3-6.5-2.75-19,0-19.5
		s16.25,3,16.25,3l2.25,46.75C740,168.883,727.5,157.883,724.5,151.383z M797,201.633v-60c0,0,8.5-0.25,9,24.75
		S797,201.633,797,201.633z M878,144.633c0,0,0-7.25,6.25-7.75s8.75,7.75,8.75,7.75H878z"/>
	<path fill="#4FA900" d="M878.5,111.633c-15-0.5-23.5,26.333-23.5,26.333l-1-71.833l-25.333-7.167l0.667,14.667l0.333,69
		c-10-33.333-34.667-37-34.667-37v-55c0,0-20.27-6.52-24.67-5.5c-2.16,0.5-1.33,12-1.33,12l-9-2.83c-6.5-2.5-14.17-0.67-17,2.33
		c-3.65,3.859-2.53,9.71-2.17,18.5c0.34,7.971,0.47,9.63,4.17,11.5c17.5,8.83,25-3.17,25-3.17l0.33,18.67
		c-4,0-35.522-3.021-47.021-4.17c-16.643-1.663-22.979,20.34-22.979,20.34l-1.5-22.17C651.17,82.303,654,131.966,654,131.966
		c-2-7-13.666-43.333-30.333-43.333c-15,0-25.837,29.67-25.837,29.67c-5.409-43.609-9.33-72.34-29.33-80.34
		c-11.04-4.41-22.5-3.83-27.5-2.33S535.394,47.8,535.334,52.3c-0.07,4.5,1.083,223.333,1.083,223.333l25.583-1v-74
		c18-0.5,28-25.333,28-25.333c0.667,82,17.048,94.109,30.875,96.503c22.125,3.83,30.792-33.17,30.792-33.17l1.302,25
		c31.365,7.278,42.698-22,42.698-22l-0.175,14.5c37,9.5,49.842-36.167,49.842-36.167l-1.667,29.001l25.333-5l0.334-14.334
		c1.12,4.42,8.333,13.334,8.333,13.334s16.833,0.666,28.833-9.334C821.44,221.183,830,196.3,830,196.3s-3.5,33.333,0,33.333
		s18.58-2.79,24.5-7c1-5,1.167-37,1.167-37s4.333,25.5,27.333,26c16.5,0.36,26-5.5,26-5.5c0-4.5,2.154-28.134,2.154-28.134
		s-15.82,6.968-23.82,6.968c-9.49,0-10.834-16.834-10.834-16.834l35.167-3.166C913.667,107.467,885.646,111.871,878.5,111.633z
		 M562,164.883c0,0-1.75-90-1-92.5C561,72.383,583.667,115.633,562,164.883z M624.25,236.133c0,0-20.25-55.5,0-112.75
		C624.25,123.383,641.667,188.967,624.25,236.133z M673.5,226.133c-4,2.75-18.5,0-18.5,0s5.25-40.5,3-49.38
		c0,0,12.25,17.13,16.5,22.63S677.5,223.383,673.5,226.133z M716.5,217.133c-3.166,5.834-15.75,3-15.75,3s-1.5-31.5-3.25-40.38
		c-1.75-8.87-13.75-19.37-18-25.37s-1.75-24.25,1-25.5c2.71-1.23,16.96,1.43,17.24,1.5c-0.09,0-1.57,2.34-0.24,23
		c1.37,21.36,7.75,26.75,17,39.25S719.565,211.483,716.5,217.133z M723.5,151.383c-3-6.5-2.75-21,0-21.5s19.25,4,19.25,4l1.25,53.75
		C741,174.883,726.5,157.883,723.5,151.383z M796,205.633v-68c0,0,11.5,3.75,12,28.75S796,205.633,796,205.633z M878,144.633
		c0,0,0-7.25,6.25-7.75s8.75,7.75,8.75,7.75H878z"/>
	<path fill="#2AFFDE" d="M574.67,49.633c-9.34-9.67-28.67-10.67-30-8.67c-1.34,2,1.33,227.67,1.33,227.67h8l0.67-71.67
		c0,0,24,0,31.66-39.66C596.52,104.583,584,59.303,574.67,49.633z M580.33,138.303c-6,42.66-25.33,35.33-25.33,35.33v-111
		C576.67,62.963,586.33,95.633,580.33,138.303z"/>
	<path fill="#2AFFDE" d="M626.67,94.533c-9.89-1.521-27,23.84-27,88.14c0,64.29,15.66,82.96,24.66,82.96
		c11.67,0,27.63-23.33,27.67-90.67C652.04,113.303,634.67,95.763,626.67,94.533z M625.83,244.963c-5.83-0.33-15.83-7-17.83-56.66
		c-2-49.67,11.04-73.74,17.83-73c6.17,0.66,17.5,14.33,17.17,63.33S631.67,245.303,625.83,244.963z"/>
	<path fill="#2AFFDE" d="M693,121.633v-19c0,0-14.28-5.475-20.333,3C664.334,117.3,658,153.967,670,175.3s18.667,17,16.667,38
		s-8.07,23.929-24.667,23.666v18.667c0,0,11.334,3.667,18.334-2.333s15.334-18.668,15-43.334s-6.99-32.999-16.662-46.666
		s-7.005-21.667-6.005-28.667S676,116.966,693,121.633z"/>
	<path fill="#2AFFDE" d="M737,105.633v17c0,0-19.333-5.667-21,11.667c-1.444,15.022,4.333,26.333,10.5,34.333
		s13.834,12.334,12.834,37.667s-9.021,45.124-32,44L706,231.633c0,0,14,0.666,19-4.667s8.34-20.09,3.674-32.757
		S706,177.382,707,145.966C707.724,123.223,713.333,98.633,737,105.633z"/>
	<polygon fill="#2AFFDE" points="754,107.633 763,107.633 763,238.633 754,239.966 	"/>
	<polygon fill="#2AFFDE" points="754,81.8 763,83.3 763,60.633 754,59.3 	"/>
	<path fill="#2AFFDE" d="M790.67,111.633l-1-56l-6.67-2v182c0,0,44.29,0.68,44.33-66.33
		C827.37,111.633,790.67,111.633,790.67,111.633z M790,219.633v-92c11,0.67,28.87,2.779,28.67,46
		C818.46,216.853,790,219.633,790,219.633z"/>
	<polygon fill="#2AFFDE" points="842,69.466 850,71.3 850,216.633 842,218.967 	"/>
	<path fill="#2AFFDE" d="M885.33,119.303c-17.66-0.08-21.33,35.66-21,46c0.34,10.33,3,54.33,39.34,36l1.66-10.34
		c0,0-32.33,16.68-32.66-28.49l36.33-2.51C909,159.963,912.74,119.423,885.33,119.303z M901,151.633l-27,1c0,0,0-22.333,12.74-23
		C901.801,128.844,901,151.633,901,151.633z"/>
</g>
</svg>
