<?xml version="1.0" encoding="utf-8"?>
<!-- Generator: Adobe Illustrator 16.0.4, SVG Export Plug-In . SVG Version: 6.00 Build 0)  -->
<!DOCTYPE svg PUBLIC "-//W3C//DTD SVG 1.1//EN" "http://www.w3.org/Graphics/SVG/1.1/DTD/svg11.dtd">
<svg version="1.1" xmlns="http://www.w3.org/2000/svg" xmlns:xlink="http://www.w3.org/1999/xlink" x="0px" y="0px" width="460px"
	 height="300px" viewBox="0 0 460 300" style="enable-background:new 0 0 460 300;" xml:space="preserve">
<style type="text/css">
<![CDATA[
	.st0{fill:#F7931E;stroke:#FFFFFF;stroke-miterlimit:10;}
	.st1{fill:none;stroke:#393434;stroke-width:3;stroke-miterlimit:10;}
	.st2{fill:#00FFFF;stroke:#0000FF;stroke-width:5;stroke-miterlimit:10;}
	.st3{fill:none;stroke:#393434;stroke-width:3;stroke-linecap:round;stroke-miterlimit:10;}
	.st4{fill:none;stroke:#393434;stroke-width:4;stroke-linecap:round;stroke-miterlimit:10;}
	.st5{fill:#00FFFF;stroke:#FF7BAC;stroke-width:5;stroke-miterlimit:10;}
	.st6{fill:#F4EDAB;}
	.st7{fill:#29ABE2;}
	.st8{fill:#C1272D;}
	.st9{fill:url(#SVGID_1_);}
	.st10{fill:url(#SVGID_2_);}
	.st11{fill:url(#SVGID_3_);}
	.st12{fill:url(#SVGID_4_);}
	.st13{fill:url(#SVGID_5_);}
	.st14{fill:url(#SVGID_6_);}
	.st15{fill:url(#SVGID_7_);}
	.st16{fill:url(#SVGID_8_);}
	.st17{fill:#00FFFF;stroke:#00FF00;stroke-width:5;stroke-miterlimit:10;}
	.st18{fill:#FF0000;}
	.st19{fill:#FFFF00;}
	.st20{fill:#00FFFF;stroke:#FFFF00;stroke-width:5;stroke-miterlimit:10;}
	.st21{fill:#393434;}
	.st22{fill:none;stroke:#F7931E;stroke-width:5;stroke-linecap:round;stroke-miterlimit:10;}
	.st23{fill:#006837;}
	.st24{fill:#00FF00;}
	.st25{fill:#00FFFF;}
	.st26{fill:#D9E021;}
	.st27{fill:#00FFFF;stroke:#FF0000;stroke-width:5;stroke-miterlimit:10;}
]]>
</style>
<g id="player4_x5F_selected">
	<rect x="230.5" y="78" class="st17" width="70" height="70"/>
	
		<radialGradient id="SVGID_1_" cx="265.5" cy="115.2744" r="27.2763" gradientTransform="matrix(1 0 0 1.036 0 -4.1487)" gradientUnits="userSpaceOnUse">
		<stop  offset="0" style="stop-color:#2E2E2E"/>
		<stop  offset="1" style="stop-color:#000000"/>
	</radialGradient>
	<path class="st9" d="M236.807,138.782c0,0,0.232-6.242,0.592-7.989c0.385-1.874,4.557-4.217,9.088-5.659
		c4.323-1.376,7.318-2.395,8.567-2.975c1.249-0.579,2.069-4.029,3.61-4.029c0.663,0,0.803-0.446,0.758-0.848
		s-0.022-0.69-0.535-1.025c-0.514-0.335-1.115-1.338-1.138-2.23c-0.022-0.892-0.759-3.101-0.759-3.101s-0.379,0.491-0.78,0.111
		c-0.401-0.379-2.609-7.516-1.07-7.582c0,0-2.698-13.159,3.368-13.471c0,0,1.516-2.766,6.847-2.766c5.33,0,8.788,3.635,10.171,6.043
		c1.382,2.409,0.379,10.438,0.379,10.438s1.115-0.424,0.49,2.364c-0.624,2.788-0.804,5.754-2.298,4.951c0,0-0.356,4.751-2.007,5.754
		c0,0-0.223,1.316,0.022,1.405s0.804-0.134,1.404,0.735c0.603,0.87,1.518,2.298,3.48,3.302c1.963,1.003,13.694,4.817,15.366,6.824
		c1.673,2.008,1.36,2.164,1.829,9.746H236.807z"/>
	<rect x="233" y="138.5" class="st23" width="65" height="7"/>
	<polygon class="st0" points="265.25,99.926 270.929,111.434 283.628,113.279 274.439,122.236 276.608,134.883 265.25,128.912 
		253.892,134.883 256.061,122.236 246.872,113.279 259.57,111.434 	"/>
</g>
<g id="player4">
	<rect x="230.5" y="3" class="st17" width="70" height="70"/>
	
		<radialGradient id="SVGID_2_" cx="265.5" cy="40.2744" r="27.2763" gradientTransform="matrix(1 0 0 1.036 0 -1.4495)" gradientUnits="userSpaceOnUse">
		<stop  offset="0" style="stop-color:#2E2E2E"/>
		<stop  offset="1" style="stop-color:#000000"/>
	</radialGradient>
	<path class="st10" d="M236.807,63.782c0,0,0.232-6.242,0.592-7.989c0.385-1.874,4.557-4.217,9.088-5.659
		c4.323-1.376,7.318-2.395,8.567-2.975c1.249-0.579,2.069-4.029,3.61-4.029c0.663,0,0.803-0.446,0.758-0.848
		s-0.022-0.69-0.535-1.025c-0.514-0.335-1.115-1.338-1.138-2.23c-0.022-0.892-0.759-3.1-0.759-3.1s-0.379,0.491-0.78,0.111
		c-0.401-0.379-2.609-7.516-1.07-7.583c0,0-2.698-13.159,3.368-13.471c0,0,1.516-2.766,6.847-2.766c5.33,0,8.788,3.635,10.171,6.044
		c1.382,2.409,0.379,10.438,0.379,10.438s1.115-0.424,0.49,2.364c-0.624,2.788-0.804,5.754-2.298,4.951c0,0-0.356,4.751-2.007,5.754
		c0,0-0.223,1.316,0.022,1.405s0.804-0.134,1.404,0.735c0.603,0.87,1.518,2.298,3.48,3.302c1.963,1.003,13.694,4.817,15.366,6.824
		c1.673,2.008,1.36,2.164,1.829,9.746H236.807z"/>
	<rect x="233" y="63.5" class="st23" width="65" height="7"/>
</g>
<g id="player3_x5F_selected">
	<rect x="154.5" y="78" class="st2" width="70" height="70"/>
	
		<radialGradient id="SVGID_3_" cx="189.5" cy="115.2744" r="27.2763" gradientTransform="matrix(1 0 0 1.036 0 -4.1487)" gradientUnits="userSpaceOnUse">
		<stop  offset="0" style="stop-color:#2E2E2E"/>
		<stop  offset="1" style="stop-color:#000000"/>
	</radialGradient>
	<path class="st11" d="M160.807,138.782c0,0,0.232-6.242,0.592-7.989c0.385-1.874,4.557-4.217,9.088-5.659
		c4.323-1.376,7.318-2.395,8.567-2.975c1.249-0.579,2.069-4.029,3.61-4.029c0.663,0,0.803-0.446,0.758-0.848
		s-0.022-0.69-0.535-1.025c-0.514-0.335-1.115-1.338-1.138-2.23c-0.022-0.892-0.759-3.101-0.759-3.101s-0.379,0.491-0.78,0.111
		c-0.401-0.379-2.609-7.516-1.07-7.582c0,0-2.698-13.159,3.368-13.471c0,0,1.516-2.766,6.847-2.766c5.33,0,8.788,3.635,10.171,6.043
		c1.382,2.409,0.379,10.438,0.379,10.438s1.115-0.424,0.49,2.364c-0.624,2.788-0.804,5.754-2.298,4.951c0,0-0.356,4.751-2.007,5.754
		c0,0-0.223,1.316,0.022,1.405s0.804-0.134,1.404,0.735c0.603,0.87,1.518,2.298,3.48,3.302c1.963,1.003,13.694,4.817,15.366,6.824
		c1.673,2.008,1.36,2.164,1.829,9.746H160.807z"/>
	<rect x="157" y="138.5" class="st7" width="65" height="7"/>
	<polygon class="st0" points="189.25,99.926 194.929,111.434 207.628,113.279 198.439,122.236 200.608,134.883 189.25,128.912 
		177.892,134.883 180.061,122.236 170.872,113.279 183.57,111.434 	"/>
</g>
<g id="player3">
	<rect x="154.5" y="3" class="st2" width="70" height="70"/>
	
		<radialGradient id="SVGID_4_" cx="189.5" cy="40.2744" r="27.2763" gradientTransform="matrix(1 0 0 1.036 0 -1.4495)" gradientUnits="userSpaceOnUse">
		<stop  offset="0" style="stop-color:#2E2E2E"/>
		<stop  offset="1" style="stop-color:#000000"/>
	</radialGradient>
	<path class="st12" d="M160.807,63.782c0,0,0.232-6.242,0.592-7.989c0.385-1.874,4.557-4.217,9.088-5.659
		c4.323-1.376,7.318-2.395,8.567-2.975c1.249-0.579,2.069-4.029,3.61-4.029c0.663,0,0.803-0.446,0.758-0.848
		s-0.022-0.69-0.535-1.025c-0.514-0.335-1.115-1.338-1.138-2.23c-0.022-0.892-0.759-3.1-0.759-3.1s-0.379,0.491-0.78,0.111
		c-0.401-0.379-2.609-7.516-1.07-7.583c0,0-2.698-13.159,3.368-13.471c0,0,1.516-2.766,6.847-2.766c5.33,0,8.788,3.635,10.171,6.044
		c1.382,2.409,0.379,10.438,0.379,10.438s1.115-0.424,0.49,2.364c-0.624,2.788-0.804,5.754-2.298,4.951c0,0-0.356,4.751-2.007,5.754
		c0,0-0.223,1.316,0.022,1.405s0.804-0.134,1.404,0.735c0.603,0.87,1.518,2.298,3.48,3.302c1.963,1.003,13.694,4.817,15.366,6.824
		c1.673,2.008,1.36,2.164,1.829,9.746H160.807z"/>
	<rect x="157" y="63.5" class="st7" width="65" height="7"/>
</g>
<g id="player2_x5F_selected">
	<rect x="78.5" y="78" class="st27" width="70" height="70"/>
	
		<radialGradient id="SVGID_5_" cx="113.5" cy="115.2744" r="27.2763" gradientTransform="matrix(1 0 0 1.036 0 -4.1487)" gradientUnits="userSpaceOnUse">
		<stop  offset="0" style="stop-color:#2E2E2E"/>
		<stop  offset="1" style="stop-color:#000000"/>
	</radialGradient>
	<path class="st13" d="M84.807,138.782c0,0,0.232-6.242,0.592-7.989c0.385-1.874,4.557-4.217,9.088-5.659
		c4.323-1.376,7.318-2.395,8.567-2.975c1.249-0.579,2.069-4.029,3.61-4.029c0.663,0,0.803-0.446,0.758-0.848
		s-0.022-0.69-0.535-1.025c-0.514-0.335-1.115-1.338-1.138-2.23c-0.022-0.892-0.759-3.101-0.759-3.101s-0.379,0.491-0.78,0.111
		c-0.401-0.379-2.609-7.516-1.07-7.582c0,0-2.698-13.159,3.368-13.471c0,0,1.516-2.766,6.847-2.766c5.33,0,8.788,3.635,10.171,6.043
		c1.382,2.409,0.379,10.438,0.379,10.438s1.115-0.424,0.49,2.364c-0.624,2.788-0.804,5.754-2.298,4.951c0,0-0.356,4.751-2.007,5.754
		c0,0-0.223,1.316,0.022,1.405s0.804-0.134,1.404,0.735c0.603,0.87,1.518,2.298,3.48,3.302c1.963,1.003,13.694,4.817,15.366,6.824
		c1.673,2.008,1.36,2.164,1.829,9.746H84.807z"/>
	<rect x="81" y="138.5" class="st8" width="65" height="7"/>
	<polygon class="st0" points="113.25,99.926 118.929,111.434 131.628,113.279 122.439,122.236 124.608,134.883 113.25,128.912 
		101.892,134.883 104.061,122.236 94.872,113.279 107.57,111.434 	"/>
</g>
<g id="player2">
	<rect x="78.5" y="3" class="st27" width="70" height="70"/>
	
		<radialGradient id="SVGID_6_" cx="113.5" cy="40.2744" r="27.2763" gradientTransform="matrix(1 0 0 1.036 0 -1.4495)" gradientUnits="userSpaceOnUse">
		<stop  offset="0" style="stop-color:#2E2E2E"/>
		<stop  offset="1" style="stop-color:#000000"/>
	</radialGradient>
	<path class="st14" d="M84.807,63.782c0,0,0.232-6.242,0.592-7.989c0.385-1.874,4.557-4.217,9.088-5.659
		c4.323-1.376,7.318-2.395,8.567-2.975c1.249-0.579,2.069-4.029,3.61-4.029c0.663,0,0.803-0.446,0.758-0.848
		s-0.022-0.69-0.535-1.025c-0.514-0.335-1.115-1.338-1.138-2.23c-0.022-0.892-0.759-3.1-0.759-3.1s-0.379,0.491-0.78,0.111
		c-0.401-0.379-2.609-7.516-1.07-7.583c0,0-2.698-13.159,3.368-13.471c0,0,1.516-2.766,6.847-2.766c5.33,0,8.788,3.635,10.171,6.044
		c1.382,2.409,0.379,10.438,0.379,10.438s1.115-0.424,0.49,2.364c-0.624,2.788-0.804,5.754-2.298,4.951c0,0-0.356,4.751-2.007,5.754
		c0,0-0.223,1.316,0.022,1.405s0.804-0.134,1.404,0.735c0.603,0.87,1.518,2.298,3.48,3.302c1.963,1.003,13.694,4.817,15.366,6.824
		c1.673,2.008,1.36,2.164,1.829,9.746H84.807z"/>
	<rect x="81" y="63.5" class="st8" width="65" height="7"/>
</g>
<g id="player1_x5F_selected">
	<rect x="2.5" y="78" class="st20" width="70" height="70"/>
	
		<radialGradient id="SVGID_7_" cx="37.5" cy="115.2744" r="27.2763" gradientTransform="matrix(1 0 0 1.036 0 -4.1487)" gradientUnits="userSpaceOnUse">
		<stop  offset="0" style="stop-color:#2E2E2E"/>
		<stop  offset="1" style="stop-color:#000000"/>
	</radialGradient>
	<path class="st15" d="M8.807,138.782c0,0,0.232-6.242,0.591-7.989c0.385-1.874,4.557-4.217,9.088-5.659
		c4.323-1.376,7.318-2.395,8.567-2.975c1.249-0.579,2.069-4.029,3.61-4.029c0.663,0,0.803-0.446,0.758-0.848
		s-0.022-0.69-0.535-1.025c-0.514-0.335-1.115-1.338-1.138-2.23c-0.022-0.892-0.759-3.101-0.759-3.101s-0.379,0.491-0.78,0.111
		c-0.401-0.379-2.609-7.516-1.07-7.582c0,0-2.699-13.159,3.368-13.471c0,0,1.516-2.766,6.847-2.766c5.33,0,8.788,3.635,10.171,6.043
		c1.382,2.409,0.379,10.438,0.379,10.438s1.115-0.424,0.49,2.364c-0.624,2.788-0.804,5.754-2.298,4.951c0,0-0.356,4.751-2.007,5.754
		c0,0-0.223,1.316,0.022,1.405s0.804-0.134,1.404,0.735c0.603,0.87,1.518,2.298,3.48,3.302c1.963,1.003,13.694,4.817,15.366,6.824
		c1.673,2.008,1.36,2.164,1.829,9.746H8.807z"/>
	<rect x="5" y="138.5" class="st6" width="65" height="7"/>
	<polygon class="st0" points="37.25,99.926 42.929,111.434 55.628,113.279 46.439,122.236 48.608,134.883 37.25,128.912 
		25.892,134.883 28.061,122.236 18.872,113.279 31.57,111.434 	"/>
</g>
<g id="player1">
	<rect x="2.5" y="3" class="st20" width="70" height="70"/>
	
		<radialGradient id="SVGID_8_" cx="37.5" cy="40.2744" r="27.2763" gradientTransform="matrix(1 0 0 1.036 0 -1.4495)" gradientUnits="userSpaceOnUse">
		<stop  offset="0" style="stop-color:#2E2E2E"/>
		<stop  offset="1" style="stop-color:#000000"/>
	</radialGradient>
	<path class="st16" d="M8.807,63.782c0,0,0.232-6.242,0.591-7.989c0.385-1.874,4.557-4.217,9.088-5.659
		c4.323-1.376,7.318-2.395,8.567-2.975c1.249-0.579,2.069-4.029,3.61-4.029c0.663,0,0.803-0.446,0.758-0.848
		s-0.022-0.69-0.535-1.025c-0.514-0.335-1.115-1.338-1.138-2.23c-0.022-0.892-0.759-3.1-0.759-3.1s-0.379,0.491-0.78,0.111
		c-0.401-0.379-2.609-7.516-1.07-7.583c0,0-2.699-13.159,3.368-13.471c0,0,1.516-2.766,6.847-2.766c5.33,0,8.788,3.635,10.171,6.044
		c1.382,2.409,0.379,10.438,0.379,10.438s1.115-0.424,0.49,2.364c-0.624,2.788-0.804,5.754-2.298,4.951c0,0-0.356,4.751-2.007,5.754
		c0,0-0.223,1.316,0.022,1.405s0.804-0.134,1.404,0.735c0.603,0.87,1.518,2.298,3.48,3.302c1.963,1.003,13.694,4.817,15.366,6.824
		c1.673,2.008,1.36,2.164,1.829,9.746H8.807z"/>
	<rect x="5" y="63.5" class="st6" width="65" height="7"/>
</g>
<g id="sound_x5F_selected">
	<rect x="2.5" y="227" class="st5" width="70" height="70"/>
	<rect x="5" y="287.5" class="st26" width="65" height="7"/>
	<g id="speaker_1_">
		<path class="st1" d="M38.29,258.5c0,11.6-2.868,21.003-6.406,21.003c-3.537,0-8.926-9.403-8.926-21.003s5.389-21.003,8.926-21.003
			C35.422,237.497,38.29,246.9,38.29,258.5z"/>
		<ellipse class="st21" cx="27.001" cy="258.815" rx="4.043" ry="13.547"/>
		<path class="st1" d="M30.834,279.503c-6.9,0-15.857-9.403-15.857-21.003s8.957-21.003,15.857-21.003"/>
		<path class="st25" d="M25.163,254.09c0,0-0.735,4.62,0,9.241c0,0,2.73,0,2.678-4.516S25.163,254.09,25.163,254.09z"/>
		<path class="st3" d="M44.63,249.804c4.803,0,8.697,3.894,8.697,8.696s-3.895,8.696-8.697,8.696"/>
		<path class="st3" d="M44.128,244.786c7.574,0,13.715,6.14,13.715,13.714s-6.141,13.715-13.715,13.715"/>
		<path class="st3" d="M43.961,240.438c9.976,0,18.062,8.087,18.062,18.062s-8.087,18.062-18.062,18.062"/>
	</g>
	<line class="st22" x1="10.807" y1="280" x2="63.023" y2="236.497"/>
</g>
<g id="sound">
	<rect x="2.5" y="153" class="st5" width="70" height="70"/>
	<rect x="5" y="213.5" class="st26" width="65" height="7"/>
	<g id="speaker">
		<path class="st1" d="M38.29,184.5c0,11.6-2.868,21.003-6.406,21.003c-3.537,0-8.926-9.403-8.926-21.003s5.389-21.003,8.926-21.003
			C35.422,163.497,38.29,172.9,38.29,184.5z"/>
		<ellipse class="st21" cx="27.001" cy="184.815" rx="4.043" ry="13.547"/>
		<path class="st1" d="M30.834,205.503c-6.9,0-15.857-9.403-15.857-21.003s8.957-21.003,15.857-21.003"/>
		<path class="st25" d="M25.163,180.09c0,0-0.735,4.62,0,9.241c0,0,2.73,0,2.678-4.516S25.163,180.09,25.163,180.09z"/>
		<path class="st3" d="M44.63,175.804c4.803,0,8.697,3.894,8.697,8.696s-3.895,8.696-8.697,8.696"/>
		<path class="st3" d="M44.128,170.786c7.574,0,13.715,6.14,13.715,13.714s-6.141,13.715-13.715,13.715"/>
		<path class="st3" d="M43.961,166.438c9.976,0,18.062,8.087,18.062,18.062s-8.087,18.062-18.062,18.062"/>
	</g>
</g>
<g id="FX">
	<rect x="78.5" y="153" class="st5" width="70" height="70"/>
	<rect x="81" y="213.5" class="st26" width="65" height="7"/>
	<g id="Fx">
		<line class="st4" x1="89" y1="166.5" x2="89" y2="205.5"/>
		<line class="st4" x1="89" y1="166.5" x2="113" y2="166.5"/>
		<line class="st4" x1="89" y1="184.5" x2="102" y2="184.5"/>
		<line class="st4" x1="109" y1="175.804" x2="134.843" y2="206.562"/>
		<line class="st4" x1="107.044" y1="205.5" x2="133.843" y2="175.804"/>
	</g>
</g>
<g id="FX_x5F_selected">
	<rect x="78.5" y="227" class="st5" width="70" height="70"/>
	<rect x="81" y="287.5" class="st26" width="65" height="7"/>
	<g id="Fx_1_">
		<line class="st4" x1="89" y1="240.5" x2="89" y2="279.5"/>
		<line class="st4" x1="89" y1="240.5" x2="113" y2="240.5"/>
		<line class="st4" x1="89" y1="258.5" x2="102" y2="258.5"/>
		<line class="st4" x1="109" y1="249.804" x2="134.843" y2="280.562"/>
		<line class="st4" x1="107.044" y1="279.5" x2="133.843" y2="249.804"/>
	</g>
	<line class="st22" x1="86.807" y1="280" x2="139.023" y2="236.497"/>
</g>
<g id="goalCell">
	<polygon class="st25" points="381.25,74 449.5,6.5 313,6.5 	"/>
	<polygon class="st19" points="381.25,74 448.5,141.5 314,141.5 	"/>
	<polygon class="st18" points="381.5,73.75 449,6.5 449,142 	"/>
	<polygon class="st24" points="381.5,73.75 313,6.5 313,142 	"/>
</g>
</svg>
