<?xml version="1.0" encoding="utf-8"?>
<!-- Generator: Adobe Illustrator 16.0.4, SVG Export Plug-In . SVG Version: 6.00 Build 0)  -->
<!DOCTYPE svg PUBLIC "-//W3C//DTD SVG 1.1//EN" "http://www.w3.org/Graphics/SVG/1.1/DTD/svg11.dtd">
<svg version="1.1" xmlns="http://www.w3.org/2000/svg" xmlns:xlink="http://www.w3.org/1999/xlink" x="0px" y="0px" width="460px"
	 height="150px" viewBox="0 0 460 150" style="enable-background:new 0 0 460 150;" xml:space="preserve">
<style type="text/css">
<![CDATA[
	.st0{fill:#F7931E;stroke:#FFFFFF;stroke-miterlimit:10;}
	.st1{fill:#00FFFF;stroke:#0000FF;stroke-width:5;stroke-miterlimit:10;}
	.st2{fill:#F4EDAB;}
	.st3{fill:#29ABE2;}
	.st4{fill:#C1272D;}
	.st5{fill:url(#SVGID_1_);}
	.st6{fill:url(#SVGID_2_);}
	.st7{fill:url(#SVGID_3_);}
	.st8{fill:url(#SVGID_4_);}
	.st9{fill:url(#SVGID_5_);}
	.st10{fill:url(#SVGID_6_);}
	.st11{fill:url(#SVGID_7_);}
	.st12{fill:url(#SVGID_8_);}
	.st13{fill:#00FFFF;stroke:#00FF00;stroke-width:5;stroke-miterlimit:10;}
	.st14{fill:#FF0000;}
	.st15{fill:#FFFF00;}
	.st16{fill:#00FFFF;stroke:#FFFF00;stroke-width:5;stroke-miterlimit:10;}
	.st17{fill:#006837;}
	.st18{fill:#00FF00;}
	.st19{fill:#00FFFF;}
	.st20{fill:#00FFFF;stroke:#FF0000;stroke-width:5;stroke-miterlimit:10;}
]]>
</style>
<g id="player4_x5F_selected">
	<rect x="230.5" y="77.5" class="st13" width="70" height="70"/>
	
		<radialGradient id="SVGID_1_" cx="265.5" cy="114.7744" r="27.2763" gradientTransform="matrix(1 0 0 1.036 0 -4.1307)" gradientUnits="userSpaceOnUse">
		<stop  offset="0" style="stop-color:#2E2E2E"/>
		<stop  offset="1" style="stop-color:#000000"/>
	</radialGradient>
	<path class="st5" d="M236.807,138.282c0,0,0.232-6.242,0.592-7.989c0.385-1.874,4.557-4.217,9.088-5.659
		c4.323-1.376,7.318-2.395,8.567-2.975c1.249-0.579,2.069-4.029,3.61-4.029c0.663,0,0.803-0.446,0.758-0.848
		s-0.022-0.69-0.535-1.025c-0.514-0.335-1.115-1.338-1.138-2.23c-0.022-0.892-0.759-3.101-0.759-3.101s-0.379,0.491-0.78,0.111
		c-0.401-0.379-2.609-7.516-1.07-7.582c0,0-2.698-13.159,3.368-13.471c0,0,1.516-2.766,6.847-2.766c5.33,0,8.788,3.635,10.171,6.043
		c1.382,2.409,0.379,10.438,0.379,10.438s1.115-0.424,0.49,2.364c-0.624,2.788-0.804,5.754-2.298,4.951c0,0-0.356,4.751-2.007,5.754
		c0,0-0.223,1.316,0.022,1.405s0.804-0.134,1.404,0.735c0.603,0.87,1.518,2.298,3.48,3.302c1.963,1.003,13.694,4.817,15.366,6.824
		c1.673,2.008,1.36,2.164,1.829,9.746H236.807z"/>
	<rect x="233" y="138" class="st17" width="65" height="7"/>
	<polygon class="st0" points="265.25,99.426 270.929,110.934 283.628,112.779 274.439,121.736 276.608,134.383 265.25,128.412 
		253.892,134.383 256.061,121.736 246.872,112.779 259.57,110.934 	"/>
</g>
<g id="player4">
	<rect x="230.5" y="2.5" class="st13" width="70" height="70"/>
	
		<radialGradient id="SVGID_2_" cx="265.5" cy="39.7744" r="27.2763" gradientTransform="matrix(1 0 0 1.036 0 -1.4315)" gradientUnits="userSpaceOnUse">
		<stop  offset="0" style="stop-color:#2E2E2E"/>
		<stop  offset="1" style="stop-color:#000000"/>
	</radialGradient>
	<path class="st6" d="M236.807,63.282c0,0,0.232-6.242,0.592-7.989c0.385-1.874,4.557-4.217,9.088-5.659
		c4.323-1.376,7.318-2.395,8.567-2.975c1.249-0.579,2.069-4.029,3.61-4.029c0.663,0,0.803-0.446,0.758-0.848
		s-0.022-0.69-0.535-1.025c-0.514-0.335-1.115-1.338-1.138-2.23c-0.022-0.892-0.759-3.1-0.759-3.1s-0.379,0.491-0.78,0.111
		c-0.401-0.379-2.609-7.516-1.07-7.583c0,0-2.698-13.159,3.368-13.471c0,0,1.516-2.766,6.847-2.766c5.33,0,8.788,3.635,10.171,6.044
		c1.382,2.409,0.379,10.438,0.379,10.438s1.115-0.424,0.49,2.364c-0.624,2.788-0.804,5.754-2.298,4.951c0,0-0.356,4.751-2.007,5.754
		c0,0-0.223,1.316,0.022,1.405s0.804-0.134,1.404,0.735c0.603,0.87,1.518,2.298,3.48,3.302c1.963,1.003,13.694,4.817,15.366,6.824
		c1.673,2.008,1.36,2.164,1.829,9.746H236.807z"/>
	<rect x="233" y="63" class="st17" width="65" height="7"/>
</g>
<g id="player3_x5F_selected">
	<rect x="154.5" y="77.5" class="st1" width="70" height="70"/>
	
		<radialGradient id="SVGID_3_" cx="189.5" cy="114.7744" r="27.2763" gradientTransform="matrix(1 0 0 1.036 0 -4.1307)" gradientUnits="userSpaceOnUse">
		<stop  offset="0" style="stop-color:#2E2E2E"/>
		<stop  offset="1" style="stop-color:#000000"/>
	</radialGradient>
	<path class="st7" d="M160.807,138.282c0,0,0.232-6.242,0.592-7.989c0.385-1.874,4.557-4.217,9.088-5.659
		c4.323-1.376,7.318-2.395,8.567-2.975c1.249-0.579,2.069-4.029,3.61-4.029c0.663,0,0.803-0.446,0.758-0.848
		s-0.022-0.69-0.535-1.025c-0.514-0.335-1.115-1.338-1.138-2.23c-0.022-0.892-0.759-3.101-0.759-3.101s-0.379,0.491-0.78,0.111
		c-0.401-0.379-2.609-7.516-1.07-7.582c0,0-2.698-13.159,3.368-13.471c0,0,1.516-2.766,6.847-2.766c5.33,0,8.788,3.635,10.171,6.043
		c1.382,2.409,0.379,10.438,0.379,10.438s1.115-0.424,0.49,2.364c-0.624,2.788-0.804,5.754-2.298,4.951c0,0-0.356,4.751-2.007,5.754
		c0,0-0.223,1.316,0.022,1.405s0.804-0.134,1.404,0.735c0.603,0.87,1.518,2.298,3.48,3.302c1.963,1.003,13.694,4.817,15.366,6.824
		c1.673,2.008,1.36,2.164,1.829,9.746H160.807z"/>
	<rect x="157" y="138" class="st3" width="65" height="7"/>
	<polygon class="st0" points="189.25,99.426 194.929,110.934 207.628,112.779 198.439,121.736 200.608,134.383 189.25,128.412 
		177.892,134.383 180.061,121.736 170.872,112.779 183.57,110.934 	"/>
</g>
<g id="player3">
	<rect x="154.5" y="2.5" class="st1" width="70" height="70"/>
	
		<radialGradient id="SVGID_4_" cx="189.5" cy="39.7744" r="27.2763" gradientTransform="matrix(1 0 0 1.036 0 -1.4315)" gradientUnits="userSpaceOnUse">
		<stop  offset="0" style="stop-color:#2E2E2E"/>
		<stop  offset="1" style="stop-color:#000000"/>
	</radialGradient>
	<path class="st8" d="M160.807,63.282c0,0,0.232-6.242,0.592-7.989c0.385-1.874,4.557-4.217,9.088-5.659
		c4.323-1.376,7.318-2.395,8.567-2.975c1.249-0.579,2.069-4.029,3.61-4.029c0.663,0,0.803-0.446,0.758-0.848
		s-0.022-0.69-0.535-1.025c-0.514-0.335-1.115-1.338-1.138-2.23c-0.022-0.892-0.759-3.1-0.759-3.1s-0.379,0.491-0.78,0.111
		c-0.401-0.379-2.609-7.516-1.07-7.583c0,0-2.698-13.159,3.368-13.471c0,0,1.516-2.766,6.847-2.766c5.33,0,8.788,3.635,10.171,6.044
		c1.382,2.409,0.379,10.438,0.379,10.438s1.115-0.424,0.49,2.364c-0.624,2.788-0.804,5.754-2.298,4.951c0,0-0.356,4.751-2.007,5.754
		c0,0-0.223,1.316,0.022,1.405s0.804-0.134,1.404,0.735c0.603,0.87,1.518,2.298,3.48,3.302c1.963,1.003,13.694,4.817,15.366,6.824
		c1.673,2.008,1.36,2.164,1.829,9.746H160.807z"/>
	<rect x="157" y="63" class="st3" width="65" height="7"/>
</g>
<g id="player2_x5F_selected">
	<rect x="78.5" y="77.5" class="st20" width="70" height="70"/>
	
		<radialGradient id="SVGID_5_" cx="113.5" cy="114.7744" r="27.2763" gradientTransform="matrix(1 0 0 1.036 0 -4.1307)" gradientUnits="userSpaceOnUse">
		<stop  offset="0" style="stop-color:#2E2E2E"/>
		<stop  offset="1" style="stop-color:#000000"/>
	</radialGradient>
	<path class="st9" d="M84.807,138.282c0,0,0.232-6.242,0.592-7.989c0.385-1.874,4.557-4.217,9.088-5.659
		c4.323-1.376,7.318-2.395,8.567-2.975c1.249-0.579,2.069-4.029,3.61-4.029c0.663,0,0.803-0.446,0.758-0.848
		s-0.022-0.69-0.535-1.025c-0.514-0.335-1.115-1.338-1.138-2.23c-0.022-0.892-0.759-3.101-0.759-3.101s-0.379,0.491-0.78,0.111
		c-0.401-0.379-2.609-7.516-1.07-7.582c0,0-2.698-13.159,3.368-13.471c0,0,1.516-2.766,6.847-2.766c5.33,0,8.788,3.635,10.171,6.043
		c1.382,2.409,0.379,10.438,0.379,10.438s1.115-0.424,0.49,2.364c-0.624,2.788-0.804,5.754-2.298,4.951c0,0-0.356,4.751-2.007,5.754
		c0,0-0.223,1.316,0.022,1.405s0.804-0.134,1.404,0.735c0.603,0.87,1.518,2.298,3.48,3.302c1.963,1.003,13.694,4.817,15.366,6.824
		c1.673,2.008,1.36,2.164,1.829,9.746H84.807z"/>
	<rect x="81" y="138" class="st4" width="65" height="7"/>
	<polygon class="st0" points="113.25,99.426 118.929,110.934 131.628,112.779 122.439,121.736 124.608,134.383 113.25,128.412 
		101.892,134.383 104.061,121.736 94.872,112.779 107.57,110.934 	"/>
</g>
<g id="player2">
	<rect x="78.5" y="2.5" class="st20" width="70" height="70"/>
	
		<radialGradient id="SVGID_6_" cx="113.5" cy="39.7744" r="27.2763" gradientTransform="matrix(1 0 0 1.036 0 -1.4315)" gradientUnits="userSpaceOnUse">
		<stop  offset="0" style="stop-color:#2E2E2E"/>
		<stop  offset="1" style="stop-color:#000000"/>
	</radialGradient>
	<path class="st10" d="M84.807,63.282c0,0,0.232-6.242,0.592-7.989c0.385-1.874,4.557-4.217,9.088-5.659
		c4.323-1.376,7.318-2.395,8.567-2.975c1.249-0.579,2.069-4.029,3.61-4.029c0.663,0,0.803-0.446,0.758-0.848
		s-0.022-0.69-0.535-1.025c-0.514-0.335-1.115-1.338-1.138-2.23c-0.022-0.892-0.759-3.1-0.759-3.1s-0.379,0.491-0.78,0.111
		c-0.401-0.379-2.609-7.516-1.07-7.583c0,0-2.698-13.159,3.368-13.471c0,0,1.516-2.766,6.847-2.766c5.33,0,8.788,3.635,10.171,6.044
		c1.382,2.409,0.379,10.438,0.379,10.438s1.115-0.424,0.49,2.364c-0.624,2.788-0.804,5.754-2.298,4.951c0,0-0.356,4.751-2.007,5.754
		c0,0-0.223,1.316,0.022,1.405s0.804-0.134,1.404,0.735c0.603,0.87,1.518,2.298,3.48,3.302c1.963,1.003,13.694,4.817,15.366,6.824
		c1.673,2.008,1.36,2.164,1.829,9.746H84.807z"/>
	<rect x="81" y="63" class="st4" width="65" height="7"/>
</g>
<g id="player1_x5F_selected">
	<rect x="2.5" y="77.5" class="st16" width="70" height="70"/>
	
		<radialGradient id="SVGID_7_" cx="37.5" cy="114.7744" r="27.2763" gradientTransform="matrix(1 0 0 1.036 0 -4.1307)" gradientUnits="userSpaceOnUse">
		<stop  offset="0" style="stop-color:#2E2E2E"/>
		<stop  offset="1" style="stop-color:#000000"/>
	</radialGradient>
	<path class="st11" d="M8.807,138.282c0,0,0.232-6.242,0.591-7.989c0.385-1.874,4.557-4.217,9.088-5.659
		c4.323-1.376,7.318-2.395,8.567-2.975c1.249-0.579,2.069-4.029,3.61-4.029c0.663,0,0.803-0.446,0.758-0.848
		s-0.022-0.69-0.535-1.025c-0.514-0.335-1.115-1.338-1.138-2.23c-0.022-0.892-0.759-3.101-0.759-3.101s-0.379,0.491-0.78,0.111
		c-0.401-0.379-2.609-7.516-1.07-7.582c0,0-2.699-13.159,3.368-13.471c0,0,1.516-2.766,6.847-2.766c5.33,0,8.788,3.635,10.171,6.043
		c1.382,2.409,0.379,10.438,0.379,10.438s1.115-0.424,0.49,2.364c-0.624,2.788-0.804,5.754-2.298,4.951c0,0-0.356,4.751-2.007,5.754
		c0,0-0.223,1.316,0.022,1.405s0.804-0.134,1.404,0.735c0.603,0.87,1.518,2.298,3.48,3.302c1.963,1.003,13.694,4.817,15.366,6.824
		c1.673,2.008,1.36,2.164,1.829,9.746H8.807z"/>
	<rect x="5" y="138" class="st2" width="65" height="7"/>
	<polygon class="st0" points="37.25,99.426 42.929,110.934 55.628,112.779 46.439,121.736 48.608,134.383 37.25,128.412 
		25.892,134.383 28.061,121.736 18.872,112.779 31.57,110.934 	"/>
</g>
<g id="player1">
	<rect x="2.5" y="2.5" class="st16" width="70" height="70"/>
	
		<radialGradient id="SVGID_8_" cx="37.5" cy="39.7744" r="27.2763" gradientTransform="matrix(1 0 0 1.036 0 -1.4315)" gradientUnits="userSpaceOnUse">
		<stop  offset="0" style="stop-color:#2E2E2E"/>
		<stop  offset="1" style="stop-color:#000000"/>
	</radialGradient>
	<path class="st12" d="M8.807,63.282c0,0,0.232-6.242,0.591-7.989c0.385-1.874,4.557-4.217,9.088-5.659
		c4.323-1.376,7.318-2.395,8.567-2.975c1.249-0.579,2.069-4.029,3.61-4.029c0.663,0,0.803-0.446,0.758-0.848
		s-0.022-0.69-0.535-1.025c-0.514-0.335-1.115-1.338-1.138-2.23c-0.022-0.892-0.759-3.1-0.759-3.1s-0.379,0.491-0.78,0.111
		c-0.401-0.379-2.609-7.516-1.07-7.583c0,0-2.699-13.159,3.368-13.471c0,0,1.516-2.766,6.847-2.766c5.33,0,8.788,3.635,10.171,6.044
		c1.382,2.409,0.379,10.438,0.379,10.438s1.115-0.424,0.49,2.364c-0.624,2.788-0.804,5.754-2.298,4.951c0,0-0.356,4.751-2.007,5.754
		c0,0-0.223,1.316,0.022,1.405s0.804-0.134,1.404,0.735c0.603,0.87,1.518,2.298,3.48,3.302c1.963,1.003,13.694,4.817,15.366,6.824
		c1.673,2.008,1.36,2.164,1.829,9.746H8.807z"/>
	<rect x="5" y="63" class="st2" width="65" height="7"/>
</g>
<g id="goalCell">
	<polygon class="st19" points="381.25,73.5 449.5,6 313,6 	"/>
	<polygon class="st15" points="381.25,73.5 448.5,141 314,141 	"/>
	<polygon class="st14" points="381.5,73.25 449,6 449,141.5 	"/>
	<polygon class="st18" points="381.5,73.25 313,6 313,141.5 	"/>
</g>
</svg>
